<svg width="53" height="65" viewBox="0 0 53 65" fill="none" xmlns="http://www.w3.org/2000/svg">
<path d="M51.4193 15.1626C51.7324 15.288 52.0873 15.2497 52.3665 15.0606C52.6456 14.8714 52.8128 14.5562 52.8128 14.219V11.1719C52.8128 10.7568 52.5599 10.3834 52.1745 10.229L26.784 0.0727927C26.5417 -0.0242642 26.2718 -0.0242642 26.0295 0.0727927L0.639007 10.229C0.252909 10.3827 0 10.7568 0 11.1719V14.219C0 14.5562 0.167192 14.8714 0.446312 15.0606C0.725444 15.2497 1.08037 15.288 1.3935 15.1626L7.10999 12.8758V17.266H1.01591C0.454818 17.266 0 17.7208 0 18.2819V63.9848C0 64.254 0.106976 64.5119 0.297542 64.7025C0.488116 64.893 0.746698 65 1.01589 65H51.7969C52.0661 65 52.3247 64.893 52.5152 64.7025C52.7058 64.5119 52.8128 64.254 52.8128 63.9848V18.2819C52.8128 18.012 52.7058 17.7541 52.5152 17.5636C52.3246 17.373 52.0661 17.266 51.7969 17.266H46.7188V13.2817L51.4193 15.1626ZM2.03115 11.8598L26.406 2.10953L50.7809 11.8598V12.7199L26.7832 3.11902C26.541 3.02267 26.2711 3.02267 26.0288 3.11902L2.03111 12.7192L2.03115 11.8598ZM17.4809 56.8754H9.00229C9.26867 56.3327 9.76598 55.9402 10.3554 55.807C10.9448 55.6739 11.5633 55.8148 12.0365 56.1903C12.3093 56.3979 12.6677 56.4546 12.9908 56.3405C13.3138 56.2272 13.5575 55.9579 13.6397 55.6257C13.6461 55.6016 13.6567 55.5244 13.661 55.4989V55.4982C13.8353 54.9442 14.2391 54.4908 14.7697 54.2534C15.3003 54.0161 15.9067 54.0175 16.4366 54.2577C16.7526 54.4199 17.0083 54.6806 17.1649 55.0001C17.7012 55.9877 17.646 56.5077 17.4809 56.8754ZM7.10925 62.9694V58.9073H19.2965V62.9694H7.10925ZM50.7809 62.9694H30.4685V60.9384H50.7809V62.9694ZM46.718 46.7192H38.5929V30.4696H46.718V46.7192ZM50.7803 48.7509V50.782H36.562V48.7509H50.7803ZM50.7803 52.8131V54.8441H34.5308V52.8131H50.7803ZM50.7803 56.8752V58.9062L32.4992 58.9069V56.8752L50.7803 56.8752ZM50.7803 46.719H48.7493V29.4536C48.7493 29.1844 48.6423 28.9258 48.4518 28.7353C48.2612 28.5454 48.0033 28.4384 47.7341 28.4384H37.5779C37.0168 28.4384 36.562 28.8926 36.562 29.4537V46.719H35.5461C34.9857 46.719 34.5309 47.1738 34.5309 47.7349V50.782H33.515C32.9539 50.782 32.4998 51.2368 32.4998 51.7972V54.8442H31.4839C30.9228 54.8442 30.468 55.299 30.468 55.8601V58.9071H29.4527C28.8917 58.9071 28.4368 59.3613 28.4368 59.9224V62.9694H21.3277V57.8913C21.3277 57.6221 21.2207 57.3635 21.0301 57.1729C20.8396 56.9824 20.5817 56.8754 20.3118 56.8754H19.5743H19.575C19.6997 55.8843 19.4794 54.8797 18.9502 54.0317C18.5811 53.3197 17.9895 52.7473 17.2655 52.4015C16.3686 51.9999 15.357 51.9361 14.4176 52.223C13.4782 52.5092 12.6741 53.127 12.1548 53.9608L12.0329 53.9204C11.0049 53.5945 9.88995 53.6916 8.93273 54.1882C7.97634 54.6856 7.25655 55.5428 6.93214 56.5708C6.90167 56.6721 6.88821 56.7741 6.86625 56.8754H6.09335C5.53225 56.8754 5.07744 57.3302 5.07744 57.8913V62.9694H2.03112V19.2978H50.7809L50.7803 46.719ZM44.687 17.266H9.1403V12.1879C9.13464 12.149 9.12684 12.11 9.11693 12.0724L26.4057 5.15662L44.6868 12.4691L44.687 17.266Z" fill="#FBF583"/>
<path d="M44.6872 40.6256C44.9564 40.6256 45.215 40.5187 45.4055 40.3281C45.5954 40.1375 45.7024 39.8789 45.7024 39.6097V37.5787C45.7024 37.0176 45.2482 36.5628 44.6871 36.5628C44.1261 36.5628 43.6712 37.0176 43.6712 37.5787V39.6097C43.6712 39.8789 43.7782 40.1375 43.9688 40.3281C44.1594 40.5187 44.418 40.6256 44.6872 40.6256Z" fill="#FBF583"/>
<path d="M32.4997 28.4382H6.09363C5.53253 28.4382 5.07772 28.8923 5.07772 29.4534V43.6724C5.09897 43.7737 5.11952 43.875 5.14006 43.9771C5.17123 44.0699 5.21657 44.1577 5.27395 44.2378C5.28812 44.259 5.29237 44.2838 5.30867 44.3037C5.32496 44.3242 5.32496 44.3136 5.33134 44.3221H5.33063C5.41564 44.4227 5.51908 44.5056 5.63526 44.5658C5.64872 44.5729 5.65864 44.5842 5.6721 44.5899V44.5906C5.80387 44.6529 5.94768 44.6862 6.09362 44.6876H32.4997C32.6428 44.6869 32.7838 44.6551 32.9142 44.5955C32.9453 44.5764 32.9751 44.5566 33.0041 44.5346C33.097 44.4829 33.1813 44.4163 33.2528 44.3384C33.2641 44.3249 33.2811 44.3214 33.2925 44.3072C33.3152 44.2697 33.335 44.2314 33.3527 44.191C33.4335 44.0763 33.4809 43.941 33.4894 43.8C33.5008 43.7582 33.5093 43.7157 33.5149 43.6725V29.4534C33.5149 29.1842 33.408 28.9256 33.2174 28.7351C33.0268 28.5452 32.7689 28.4382 32.4997 28.4382ZM31.4838 41.2064C28.7917 37.8639 27.2679 32.7716 26.6814 30.4693H31.4838V41.2064ZM20.3116 30.4693H24.5843C25.1001 32.6434 26.7585 38.6885 30.0493 42.6565H20.3118L20.3116 30.4693ZM18.2806 42.6565H8.55023C11.8416 38.6885 13.4994 32.6434 14.0152 30.4693H18.2808L18.2806 42.6565ZM11.9188 30.4693C11.3308 32.7738 9.80561 37.8738 7.10859 41.2163L7.1093 30.4693H11.9188Z" fill="#FBF583"/>
</svg>
