<svg width="154" height="30" viewBox="0 0 154 30" fill="none" xmlns="http://www.w3.org/2000/svg">
<g clip-path="url(#clip0_111_1274)">
<path d="M24.3501 14.6502C23.4014 15.702 22.2839 16.591 21.0427 17.2811C19.8201 17.9676 18.4935 18.4533 17.1144 18.7193C17.6504 19.7167 17.7873 20.8779 17.4977 21.971C17.2263 23.0478 16.7571 24.0657 16.1136 24.9737C15.5265 25.7807 14.8334 26.5065 14.0528 27.1319C13.2615 27.7741 12.3926 28.3161 11.4662 28.7451C10.5469 29.1724 9.58268 29.4973 8.59123 29.7141C7.63132 29.928 6.64554 30.005 5.66368 29.9429C4.8449 29.8729 4.04296 29.6718 3.28908 29.3474C2.90384 29.1849 2.5553 28.9476 2.264 28.6495C1.97269 28.3513 1.74452 27.9983 1.59293 27.6114C1.40285 27.1536 1.32215 26.6585 1.35717 26.1647C1.3894 25.6604 1.47756 25.1611 1.62007 24.6759C1.76153 24.1858 1.95424 23.7117 2.19506 23.2612C2.43422 22.8138 2.66659 22.3932 2.89048 21.9962C2.48127 21.8984 2.08669 21.748 1.71675 21.5488C1.35164 21.3533 1.03296 21.0826 0.782172 20.7548C0.486729 20.38 0.272499 19.9488 0.152901 19.4881C0.0258474 19.0111 -0.0222709 18.5169 0.010425 18.0246C0.0776172 16.951 0.345647 15.8991 0.80083 14.9227C1.23981 13.9531 1.74414 13.014 2.3104 12.1117C3.25749 10.5966 4.33095 9.16286 5.51951 7.82555C6.71594 6.4699 8.04929 5.2394 9.49867 4.15335C10.9209 3.08603 12.474 2.20199 14.1207 1.52242C15.7558 0.846982 17.5 0.468639 19.2702 0.405452C20.0478 0.373885 20.8267 0.423501 21.5939 0.553484C22.3727 0.685042 23.1302 0.919257 23.8464 1.24991C24.557 1.57471 25.2055 2.01922 25.763 2.56369C26.3439 3.14394 26.8074 3.82915 27.1284 4.58231C27.4747 5.38016 27.6303 6.24662 27.583 7.11399C27.5354 7.97027 27.3827 8.8176 27.1284 9.63726C26.8654 10.5146 26.5125 11.3629 26.0751 12.1689C25.588 13.0528 25.0099 13.8843 24.3501 14.6502ZM3.56216 17.2306C3.52993 17.3299 3.49092 17.488 3.44343 17.7016C3.39594 17.9153 3.35353 18.1323 3.323 18.3476C3.29247 18.5629 3.26703 18.753 3.25176 18.9178C3.2365 19.0827 3.25176 19.1836 3.323 19.2156C3.51522 19.3267 3.7261 19.4025 3.94549 19.4393C4.15098 19.4917 4.36748 19.4829 4.56797 19.4141C6.54455 16.7349 8.45102 14.2868 10.2874 12.0697C12.1237 9.85258 13.9364 7.61864 15.7252 5.36788C15.9514 5.10322 16.1589 4.83856 16.3477 4.57389C16.5473 4.30338 16.7746 4.0542 17.0262 3.83037C16.3265 4.02742 15.6454 4.28465 14.9908 4.59913C14.3251 4.91963 13.6773 5.27565 13.0504 5.66563C11.9582 6.33048 10.9434 7.11295 10.0245 7.99881C9.09504 8.8941 8.21515 9.83862 7.38867 10.8282C6.58646 11.7933 5.84226 12.8043 5.15993 13.8562C4.48007 14.9064 3.94285 16.041 3.56216 17.2306ZM15.4352 15.9404C16.3028 15.7743 17.1541 15.5334 17.9794 15.2204C18.932 14.8344 19.8201 14.3075 20.6135 13.6577C21.4666 12.9714 22.1887 12.139 22.7456 11.2C23.3254 10.2435 23.7813 9.21822 24.1025 8.14853C24.2651 7.56625 24.3461 6.96456 24.3434 6.36037C24.3497 5.75866 24.1652 5.1702 23.8159 4.67819C23.5368 4.25659 23.136 3.92829 22.6659 3.73617C22.1907 3.53847 21.691 3.40494 21.18 3.33917C20.6477 3.27247 20.1097 3.26401 19.5755 3.31394C19.0868 3.36125 18.601 3.43424 18.1202 3.53263C18.5643 3.5968 18.9804 3.78596 19.3194 4.07765C19.4878 4.21561 19.6226 4.38956 19.7136 4.58648C19.8047 4.78341 19.8497 4.99821 19.8452 5.21481C19.8576 5.43444 19.7981 5.65219 19.6756 5.83553C19.5495 6.00049 19.4136 6.15778 19.2685 6.30654C19.1163 6.56229 18.9402 6.80333 18.7427 7.02651C18.5504 7.24183 18.3588 7.46612 18.1677 7.69939L13.8561 12.8637C12.6111 14.381 11.3735 15.9028 10.1432 17.4291C8.89913 18.971 7.73956 20.5781 6.6695 22.2435C6.41338 22.6085 6.16066 22.9887 5.92659 23.3857C5.68606 23.7856 5.47025 24.1996 5.28035 24.6255C5.18358 24.7889 5.09582 24.9573 5.01745 25.1301C4.8993 25.3783 4.80283 25.6361 4.72911 25.9006C4.65585 26.142 4.61591 26.3921 4.61038 26.6441C4.59969 26.7311 4.62366 26.8188 4.6772 26.8886C4.73074 26.9583 4.80961 27.0046 4.89703 27.0175C5.81906 27.1474 6.75847 27.0791 7.65157 26.8174C8.54536 26.5733 9.40637 26.2237 10.2161 25.7761C10.9732 25.3625 11.6733 24.8536 12.299 24.2621C12.9443 23.6628 13.4878 22.9641 13.9087 22.193C14.1082 21.7729 14.2606 21.3324 14.3632 20.8793C14.4771 20.4187 14.4168 19.9327 14.1936 19.5133C14.0505 19.1667 13.7748 18.8904 13.427 18.7446C13.082 18.6017 12.7953 18.3482 12.6128 18.0246C12.4256 17.72 12.3574 17.358 12.4211 17.0069C12.4519 16.8374 12.525 16.6782 12.6337 16.5439C12.7425 16.4097 12.8834 16.3045 13.0436 16.2381C13.2059 16.1714 13.3775 16.1295 13.5525 16.1137C13.7221 16.0985 13.912 16.0884 14.1037 16.0884C14.3337 16.0578 14.5654 16.0415 14.7974 16.0396C15.0137 16.0374 15.2286 16.0039 15.4352 15.9404Z" fill="white"/>
<path d="M18.0251 25.7172C18.5679 25.1217 19.3345 24.2531 20.3251 23.1115C21.3156 21.9699 22.3458 20.7705 23.4155 19.5133C24.4863 18.2573 25.4842 17.0579 26.4092 15.9151C27.3341 14.7724 28.0211 13.9038 28.47 13.3094C28.4053 12.9489 28.3973 12.5807 28.4462 12.2177C28.4879 11.8419 28.5845 11.4742 28.7329 11.126C28.8684 10.8058 29.0824 10.5242 29.3554 10.3067C29.6385 10.0882 29.9811 9.95868 30.3391 9.93499C30.5668 9.91552 30.796 9.9453 31.011 10.0223C31.2259 10.0992 31.4215 10.2215 31.5841 10.3808C31.9329 10.7087 32.1534 11.1485 32.2066 11.6222C32.2391 11.9477 32.2069 12.2763 32.1116 12.5895C32.0142 12.9072 31.8858 13.2149 31.7283 13.5079L32.2558 13.7569C32.6952 13.9781 33.1765 14.1053 33.6687 14.1303C34.1526 14.1538 34.6225 14.2991 35.0341 14.5526C35.4478 14.8166 35.773 15.1966 35.9686 15.6443C36.0733 15.8432 36.1131 16.0694 36.0828 16.2918C36.0524 16.5141 35.9533 16.7216 35.799 16.8858C34.8085 18.0431 33.9039 19.1432 33.0852 20.1862C32.2665 21.2291 31.492 22.2794 30.7615 23.3369C30.6326 23.5354 30.4409 23.8747 30.1865 24.3546C29.9474 24.8033 29.7339 25.265 29.547 25.7374C29.3774 26.1848 29.3079 26.5398 29.3554 26.8056C29.4029 27.0714 29.6675 27.0697 30.1475 26.8056C31.1867 26.211 32.1244 25.4571 32.9258 24.5716C33.8191 23.6105 34.9691 22.4027 36.3757 20.9482C36.5674 20.7161 36.7743 20.4772 36.9982 20.2282C37.2012 19.9966 37.4448 19.8034 37.7174 19.658C37.9499 19.5578 38.2064 19.5257 38.4567 19.5653C38.7071 19.605 38.9408 19.7147 39.1303 19.8817C39.338 20.0369 39.4963 20.2479 39.5866 20.4898C39.6768 20.7316 39.695 20.9941 39.6391 21.246C39.587 21.553 39.4449 21.8379 39.2303 22.0652C39.0234 22.2805 38.8238 22.5048 38.6316 22.7381C38.0572 23.3335 37.5625 23.855 37.1475 24.3025C36.7325 24.7499 36.365 25.1301 36.045 25.443C35.7261 25.7581 35.4468 26.0385 35.2071 26.2841L34.5117 27.0024C34.1611 27.3388 33.7936 27.6753 33.4092 28.0117C33.0246 28.3616 32.6166 28.6853 32.1879 28.9806C31.7638 29.2744 31.3053 29.5162 30.8225 29.7006C30.3482 29.8805 29.8446 29.9729 29.3367 29.9731C28.7338 29.9897 28.1376 29.8438 27.6117 29.5509C27.1537 29.2902 26.7738 28.9134 26.5109 28.4592C26.2449 27.9772 26.0891 27.4431 26.0547 26.8947C26.0083 26.294 26.0657 25.6898 26.2243 25.1082C26.5357 23.8367 27.0752 22.631 27.817 21.5488C28.5689 20.4576 29.3441 19.3989 30.1424 18.3728C30.3685 18.0745 30.5839 17.7767 30.7886 17.4796C30.9933 17.1824 31.2251 16.8841 31.484 16.5846C31.2466 16.4995 31.0144 16.4007 30.7886 16.2886C30.558 16.1817 30.341 16.0478 30.1424 15.8899C29.949 16.122 29.5974 16.5774 29.0874 17.2558C28.5774 17.9343 27.9707 18.7193 27.2674 19.6109C26.5641 20.508 25.8212 21.4428 25.0387 22.4151C24.2562 23.3874 23.5138 24.2974 22.8116 25.1453C22.1094 25.9897 21.4785 26.7091 20.9187 27.3035C20.359 27.8979 19.9678 28.2455 19.745 28.3464C19.5975 28.4426 19.4278 28.4998 19.2518 28.5127C19.0758 28.5257 18.8994 28.4939 18.7392 28.4205C18.4233 28.2745 18.157 28.0408 17.9725 27.7476C17.7801 27.4446 17.6723 27.0962 17.6604 26.7383C17.642 26.3655 17.771 26.0003 18.02 25.7206" fill="white"/>
<path d="M37.86 29.9866C37.2647 30.0228 36.6696 29.9118 36.1282 29.6636C35.5838 29.4133 35.1437 28.9835 34.8832 28.4474C34.5347 27.8642 34.3754 27.1888 34.427 26.5128C34.4723 25.8355 34.6092 25.1673 34.834 24.5262C35.2805 23.1057 35.9689 21.7715 36.8694 20.5815C37.7808 19.3737 38.699 18.2068 39.624 17.0809C40.0763 16.5201 40.5314 15.9661 40.9894 15.4189C41.4473 14.8716 41.9347 14.3507 42.4514 13.8561C42.6736 13.624 42.906 13.3918 43.1452 13.1614C43.3721 12.9344 43.6723 12.7938 43.9932 12.7644C44.2459 12.7571 44.4964 12.8122 44.7222 12.9247C44.9481 13.0371 45.1423 13.2034 45.2874 13.4087C45.5905 13.802 45.7883 14.2649 45.8624 14.7544C45.8725 14.9679 45.8312 15.1806 45.742 15.3751C45.6377 15.5585 45.5174 15.7325 45.3824 15.8949C44.3274 17.0534 43.3052 18.195 42.3157 19.3198C41.3177 20.4546 40.3899 21.6484 39.5375 22.8945C39.0251 23.5894 38.5911 24.338 38.2433 25.1267C37.9877 25.7559 37.908 26.2044 38.0041 26.4725C38.0991 26.7383 38.379 26.7702 38.842 26.5717C39.3051 26.3732 39.9513 25.877 40.7824 25.083C41.2347 24.6524 41.7379 24.1477 42.292 23.569L44.8074 20.9633C45.0335 20.7323 45.249 20.4923 45.4536 20.2434C45.6557 20.0011 45.9094 19.8063 46.1965 19.6731C46.4293 19.573 46.6861 19.5409 46.9367 19.5805C47.1873 19.6202 47.4212 19.7299 47.6111 19.8968C47.8188 20.052 47.9772 20.263 48.0674 20.5049C48.1576 20.7468 48.1759 21.0092 48.12 21.2611C48.0678 21.5677 47.9263 21.8525 47.7129 22.0803L47.0667 22.7532L45.6758 24.2419L44.3342 25.6314C43.8886 26.0957 43.4256 26.5588 42.945 27.0209C42.1573 27.8414 41.282 28.5747 40.3346 29.2077C39.5994 29.6885 38.7466 29.9628 37.8668 30.0017M49.0189 9.38826C48.7369 9.38928 48.4581 9.32966 48.2016 9.21349C47.9451 9.09733 47.717 8.92739 47.5331 8.71538C47.1348 8.31032 46.9115 7.76719 46.9106 7.20142C46.9063 6.91675 46.9592 6.63408 47.066 6.36985C47.1729 6.10561 47.3317 5.86507 47.5331 5.66223C47.7216 5.45808 47.9513 5.29553 48.2073 5.18512C48.4633 5.0747 48.7398 5.0189 49.0189 5.02132C49.2938 5.02414 49.5652 5.08276 49.8163 5.19357C50.0675 5.30437 50.2931 5.46501 50.4793 5.66559C50.687 5.86506 50.8516 6.1044 50.963 6.36904C51.0744 6.63367 51.1303 6.91803 51.1272 7.20479C51.1249 7.77028 50.9018 8.3129 50.5047 8.71875C50.3208 8.93075 50.0928 9.10069 49.8363 9.21686C49.5798 9.33302 49.3009 9.39264 49.0189 9.39162" fill="white"/>
<path d="M61.9096 9.04173C61.8173 9.18175 61.6977 9.30208 61.5579 9.39567C61.4181 9.48926 61.2609 9.55423 61.0954 9.58675C60.7121 9.68544 59.9296 9.76843 58.7479 9.83572C57.5041 11.2252 56.4581 12.4162 55.6101 13.4087C54.762 14.4012 54.027 15.2619 53.4051 15.9908C52.7832 16.7175 52.2404 17.3624 51.7768 17.9253C51.3132 18.4883 50.8739 19.0344 50.4589 19.5638C49.6605 20.5249 48.9018 21.5257 48.1826 22.5665C47.4684 23.6024 46.898 24.7289 46.4865 25.9157C46.2948 26.5785 46.3254 26.9334 46.5815 26.9839C46.8376 27.0343 47.165 26.9418 47.5635 26.7113C47.9763 26.4699 48.3688 26.1959 48.7373 25.8921C49.1206 25.5781 49.3603 25.3712 49.4564 25.2714C49.9025 24.8424 50.391 24.3445 50.9185 23.7827C51.446 23.2208 52.2195 22.3595 53.2406 21.2005C53.4339 20.9701 53.6408 20.7211 53.8647 20.457C54.0704 20.2077 54.3122 19.99 54.5822 19.811C54.7758 19.669 55.006 19.5843 55.2462 19.5667C55.4863 19.5491 55.7266 19.5994 55.9391 19.7118C56.1605 19.8166 56.3502 19.9773 56.4893 20.1778C56.6283 20.3783 56.7117 20.6115 56.7312 20.854C56.7683 21.1164 56.7264 21.3838 56.6108 21.6228C56.4902 21.8503 56.3371 22.0594 56.1562 22.2435C55.6123 22.839 55.1487 23.352 54.7654 23.7827C54.3821 24.2133 54.0389 24.5935 53.7358 24.9232C53.4322 25.2596 53.1676 25.5439 52.9454 25.7929C52.7232 26.0418 52.4976 26.2807 52.267 26.5112C51.4838 27.3548 50.6261 28.1272 49.7041 28.8191C48.7721 29.5269 47.6438 29.9343 46.4712 29.9866C46.0026 30.033 45.5295 29.972 45.0884 29.8084C44.6472 29.6448 44.2499 29.3829 43.927 29.0429C43.6028 28.7176 43.3502 28.3291 43.1853 27.902C43.0203 27.4749 42.9465 27.0185 42.9687 26.5616C43.0084 25.5714 43.2279 24.5964 43.6166 23.6834C44.0085 22.7389 44.4896 21.8333 45.0532 20.9785C45.613 20.134 46.0845 19.464 46.4678 18.9683C47.6597 17.479 48.8068 15.9897 49.9093 14.5004C51.0218 12.9995 52.2136 11.5581 53.4797 10.1822L50.7489 10.4295C50.4928 10.4632 50.2401 10.5035 49.9823 10.554C49.7244 10.6045 49.5022 10.4951 49.3038 10.231C49.0746 9.9698 48.9186 9.65349 48.8513 9.31372C48.7841 8.97395 48.8079 8.62261 48.9205 8.29484C49.0166 7.93149 49.2003 7.72458 49.4717 7.67412C49.7431 7.62365 50.0388 7.56758 50.3588 7.5059C50.5488 7.47394 50.7659 7.44029 51.005 7.40665C51.2442 7.37301 51.5868 7.32422 52.0346 7.25862L53.8325 6.98442C54.5822 6.87228 55.5643 6.73153 56.7787 6.56219C57.8315 5.40485 58.9096 4.24695 60.0133 3.08849C60.97 2.06811 61.9878 1.10584 63.0612 0.206918C63.1474 0.127819 63.2503 0.0689155 63.3624 0.0345588C63.4746 0.000202022 63.5931 -0.00873047 63.7092 0.008421C63.9415 0.0391448 64.1631 0.124504 64.3554 0.257384C64.7246 0.472611 65.0304 0.780002 65.2425 1.14894C65.476 1.51866 65.5692 1.95874 65.5054 2.39039C65.4452 2.65185 65.3026 2.88751 65.0983 3.06326C64.8891 3.24718 64.7054 3.421 64.5471 3.58474L62.0079 6.05586C62.6135 5.99025 62.9103 6.25436 62.895 6.84985C62.8798 7.44534 62.5558 8.17541 61.9113 9.03668" fill="white"/>
<path d="M54.964 29.9866C54.371 30.0219 53.7783 29.911 53.239 29.6636C52.6946 29.4134 52.2546 28.9835 51.9941 28.4474C51.6456 27.8642 51.4863 27.1889 51.5378 26.5129C51.5832 25.8356 51.7201 25.1674 51.9449 24.5262C52.3913 23.1057 53.0797 21.7716 53.9803 20.5815C54.8917 19.3737 55.8098 18.2068 56.7348 17.0809C57.1871 16.5202 57.6422 15.9662 58.1002 15.4189C58.5582 14.8716 59.0455 14.3507 59.5623 13.8562C59.7845 13.624 60.0168 13.3919 60.256 13.1614C60.4806 12.936 60.7776 12.7955 61.0956 12.7644C61.3479 12.7575 61.5981 12.8127 61.8237 12.9251C62.0492 13.0375 62.2431 13.2037 62.3881 13.4087C62.6918 13.8016 62.8897 14.2647 62.9631 14.7545C62.9737 14.9678 62.933 15.1805 62.8443 15.3752C62.7401 15.5586 62.6198 15.7325 62.4847 15.895C61.4297 17.0534 60.4075 18.1951 59.4181 19.3199C58.42 20.4547 57.4922 21.6484 56.6398 22.8945C56.1274 23.5895 55.6935 24.338 55.3457 25.1268C55.0901 25.7559 55.0104 26.2045 55.1065 26.4725C55.2015 26.7383 55.4813 26.7703 55.9444 26.5718C56.4074 26.3733 57.0537 25.877 57.8848 25.083C58.3371 24.6524 58.8403 24.1477 59.3944 23.5691L61.9097 20.9533C62.1319 20.7228 62.349 20.4823 62.556 20.2333C62.758 19.9911 63.0118 19.7963 63.2989 19.6631C63.5314 19.5629 63.7879 19.5308 64.0383 19.5704C64.2886 19.61 64.5223 19.7198 64.7118 19.8868C64.9195 20.0419 65.0779 20.253 65.1681 20.4949C65.2583 20.7367 65.2765 20.9992 65.2206 21.251C65.1685 21.5577 65.027 21.8424 64.8135 22.0703L64.1673 22.7431L62.7765 24.2319L61.4348 25.6213C60.987 26.0856 60.5257 26.5482 60.0457 27.0108C59.2576 27.831 58.3824 28.5642 57.4353 29.1977C56.6999 29.6782 55.8472 29.9525 54.9674 29.9916M66.1281 9.3883C65.8461 9.38932 65.5672 9.3297 65.3107 9.21354C65.0542 9.09737 64.8261 8.92743 64.6422 8.71543C64.244 8.31037 64.0206 7.76724 64.0198 7.20147C64.0155 6.9168 64.0683 6.63413 64.1752 6.36989C64.2821 6.10565 64.4408 5.86512 64.6422 5.66227C64.8305 5.45751 65.06 5.29433 65.316 5.18333C65.572 5.07233 65.8487 5.016 66.1281 5.018C66.4029 5.02082 66.6743 5.07944 66.9255 5.19025C67.1766 5.30105 67.4023 5.46169 67.5884 5.66227C67.7962 5.86174 67.9608 6.10108 68.0722 6.36572C68.1836 6.63035 68.2394 6.91471 68.2364 7.20147C68.2348 7.76744 68.0109 8.31054 67.6122 8.71543C67.4286 8.92739 67.2009 9.09732 66.9446 9.21349C66.6884 9.32966 66.4098 9.38931 66.1281 9.3883Z" fill="white"/>
<path d="M62.8205 20.018C63.3633 19.4572 63.8823 18.9033 64.3776 18.356C64.8728 17.8087 65.3602 17.2379 65.8396 16.6435C66.292 16.0828 66.7392 15.4957 67.1813 14.8823C67.6234 14.2688 68.1187 13.5657 68.6671 12.7728C68.9025 11.7611 69.2902 10.7902 69.8171 9.89293C70.2915 9.13379 70.9193 8.48029 71.6608 7.97357C72.399 7.46558 73.2778 7.197 74.1762 7.20481C74.5875 7.19359 74.9913 7.31586 75.3262 7.55302C75.4843 7.66787 75.614 7.81693 75.7054 7.9889C75.7968 8.16086 75.8475 8.35121 75.8537 8.54551C75.862 8.80364 75.8036 9.05959 75.6841 9.28903C75.5695 9.49143 75.4149 9.6688 75.2295 9.81051C75.0373 9.95896 74.8278 10.0838 74.6053 10.1823C74.3875 10.2791 74.1791 10.3957 73.9828 10.5305C73.4599 10.8748 73.0254 11.3356 72.7141 11.8762C72.4174 12.3875 72.199 12.9397 72.0662 13.5147C71.7463 14.908 71.5701 16.3301 71.5404 17.7588C71.5076 19.1988 71.4115 20.6297 71.2521 22.0517C71.1663 23.1387 70.8992 24.2039 70.4617 25.2041C70.0568 26.1394 69.4986 27.0017 68.8096 27.756C68.1499 28.4762 67.3518 29.0584 66.4621 29.4685C65.5325 29.8884 64.5107 30.0678 63.4922 29.9899C62.6026 29.9668 61.731 29.7362 60.948 29.3171C60.2099 28.9279 59.5645 28.3864 59.0551 27.7291C58.5557 27.0743 58.2266 26.3077 58.0967 25.4968C57.9559 24.6203 58.0465 23.7226 58.3596 22.8911C58.4104 22.7095 58.5043 22.5426 58.6336 22.4044C58.7629 22.2662 58.9237 22.1609 59.1026 22.0972C59.4385 21.9673 59.8062 21.9409 60.1576 22.0215C60.491 22.1049 60.7862 22.2975 60.9954 22.5682C61.1047 22.71 61.1753 22.8774 61.2006 23.0541C61.2258 23.2309 61.2048 23.4111 61.1396 23.5775C60.8207 24.6361 60.9406 25.48 61.4992 26.1092C62.0578 26.7383 62.8001 27.0523 63.7262 27.0512C64.4612 27.0512 65.164 26.7618 65.8346 26.1832C66.4588 25.6675 66.9511 25.0127 67.2712 24.2722C67.4038 23.9955 67.5007 23.7033 67.5595 23.4025C67.6223 23.0896 67.68 22.7162 67.7292 22.2872C67.7783 21.8583 67.8157 21.3351 67.8496 20.7228C67.8835 20.1105 67.9276 19.3586 67.9921 18.4653C67.4176 19.1943 66.8522 19.8722 66.2959 20.4991C65.7746 21.0874 65.2232 21.6489 64.6439 22.1813C64.3233 22.479 63.9976 22.5867 63.6618 22.5026C63.3321 22.4242 63.0372 22.2411 62.8222 21.9811C62.5953 21.7065 62.4612 21.3681 62.4389 21.0138C62.4246 20.828 62.4516 20.6414 62.5178 20.4671C62.584 20.2927 62.6879 20.1348 62.8222 20.0045" fill="white"/>
<path d="M95.3052 2.24238C95.3092 2.36422 95.2855 2.48539 95.2359 2.59692C95.1863 2.70845 95.112 2.80747 95.0185 2.88666C94.8274 3.05263 94.6516 3.21805 94.491 3.3829C92.7917 4.94164 91.2047 6.61672 89.7418 8.3958C88.3035 10.1509 86.898 11.8891 85.5252 13.6106C86.068 13.3459 86.6333 13.0981 87.2213 12.867C87.7746 12.645 88.3543 12.4946 88.9463 12.4196C89.4763 12.3512 90.0147 12.3936 90.5271 12.5441C91.0432 12.7015 91.493 13.0224 91.8077 13.4575C92.0518 13.8183 92.1924 14.2381 92.2148 14.672C92.2298 15.0924 92.1725 15.5122 92.0452 15.9135C91.9155 16.3327 91.7307 16.7331 91.4956 17.1044C91.2548 17.4863 91.0241 17.8412 90.8002 18.1726C89.9437 19.3858 88.9731 20.5157 87.9015 21.5471C86.8622 22.5419 85.9084 23.6212 85.0503 24.7735C84.7154 25.1902 84.4265 25.6414 84.1886 26.1193C84.0597 26.4153 84.019 26.6239 84.0682 26.7383C84.0879 26.791 84.1244 26.8359 84.1721 26.8663C84.2199 26.8966 84.2763 26.9108 84.3328 26.9065C84.4309 26.9124 84.529 26.8957 84.6195 26.8577C85.0749 26.6536 85.5085 26.4045 85.9136 26.1142C86.3275 25.8148 86.7278 25.5019 87.1111 25.1705C87.5905 24.7399 88.1655 24.2021 88.8361 23.5573C89.5066 22.9125 90.3688 22.0131 91.4227 20.8591C91.6144 20.6269 91.8213 20.3965 92.0452 20.1643C92.2444 19.9455 92.49 19.7732 92.7644 19.6597C93.0042 19.5578 93.2693 19.5293 93.5255 19.5779C93.7818 19.6264 94.0176 19.7498 94.2027 19.9322C94.4013 20.1041 94.547 20.3279 94.6232 20.5781C94.6994 20.8283 94.703 21.0948 94.6335 21.3469C94.5714 21.6404 94.4213 21.9084 94.2027 22.1157C93.9822 22.3283 93.7739 22.553 93.5785 22.7885L92.0706 24.3513C91.6376 24.7999 91.2621 25.1806 90.9444 25.4935C90.6238 25.808 90.3372 26.089 90.0811 26.3346C89.8249 26.5802 89.5858 26.8073 89.3636 27.0074C88.5483 27.7485 87.666 28.4135 86.7278 28.9941C85.8067 29.5769 84.7515 29.9184 83.6611 29.9866C83.1452 30.0234 82.6278 29.938 82.1516 29.7376C81.6809 29.5322 81.2874 29.1849 81.027 28.7451C80.6752 28.1546 80.5236 27.4677 80.5945 26.7854C80.6549 26.0906 80.8332 25.411 81.122 24.7752C81.6564 23.4975 82.4105 22.3215 83.3507 21.2998C84.2915 20.2748 85.2255 19.2655 86.1528 18.2719C86.2478 18.1726 86.4564 17.9489 86.7753 17.599C87.0941 17.2491 87.3977 16.9043 87.6861 16.5577C87.9118 16.3018 88.1049 16.0193 88.2611 15.7166C88.3561 15.503 88.2136 15.461 87.8303 15.5922C87.0815 15.8611 86.3597 16.199 85.6745 16.6015C84.9711 17.0164 84.3 17.4549 83.6611 17.9169C81.9363 19.0908 80.3669 20.4748 78.9899 22.0366C77.6975 23.5236 76.4897 25.0809 75.3721 26.7013C74.7354 27.6287 74.3131 28.2607 74.105 28.5971C73.9583 28.8763 73.7095 29.0893 73.4096 29.1926C73.0319 29.3239 72.6234 29.3409 72.2359 29.2414C71.8432 29.1458 71.4961 28.9181 71.2538 28.5971C71.078 28.3722 70.9614 28.1074 70.9146 27.8267C70.8827 27.583 70.916 27.3352 71.0113 27.1084C71.1138 26.8634 71.2423 26.63 71.3946 26.412L71.8729 25.7172C72.2257 25.189 72.5836 24.6675 72.9517 24.1545C73.3197 23.6414 73.6946 23.1199 74.0779 22.5917C76.6651 18.9515 79.2438 15.5434 81.814 12.3674C84.3843 9.19147 87.0596 6.13046 89.8402 3.18441L91.1344 1.83866C91.5527 1.41251 91.9881 1.00094 92.4404 0.603941C92.6143 0.451739 92.7979 0.31071 92.9899 0.181713C93.0847 0.124903 93.1907 0.0889008 93.3007 0.0761331C93.4107 0.0633655 93.5222 0.0741286 93.6277 0.107697C94.1081 0.253668 94.5335 0.539001 94.8489 0.926919C95.1497 1.29986 95.3104 1.76488 95.3035 2.24238" fill="white"/>
<path d="M126.872 14.6501C125.924 15.702 124.807 16.591 123.566 17.2811C122.344 17.9673 121.017 18.453 119.638 18.7193C120.173 19.7169 120.31 20.8778 120.021 21.971C119.748 23.0478 119.277 24.0656 118.632 24.9737C118.045 25.7803 117.352 26.5061 116.571 27.1319C115.779 27.7741 114.91 28.316 113.983 28.7451C113.064 29.1723 112.101 29.4973 111.11 29.7141C110.154 29.9269 109.172 30.0039 108.194 29.9428C107.375 29.8724 106.574 29.6713 105.819 29.3473C105.434 29.1847 105.086 28.9474 104.795 28.6492C104.503 28.3511 104.275 27.9982 104.123 27.6113C103.933 27.1561 103.85 26.6633 103.882 26.1714C103.916 25.6671 104.005 25.1679 104.147 24.6826C104.287 24.192 104.48 23.7177 104.722 23.2679C104.961 22.8205 105.192 22.3999 105.416 22.0029C105.007 21.9051 104.612 21.7547 104.242 21.5555C103.878 21.3591 103.559 21.0885 103.307 20.7615C103.014 20.3862 102.802 19.955 102.685 19.4948C102.557 19.0179 102.509 18.5237 102.541 18.0313C102.609 16.9576 102.877 15.9057 103.333 14.9294C103.771 13.958 104.274 13.0166 104.839 12.1117C105.785 10.5967 106.858 9.163 108.045 7.82552C109.24 6.46959 110.572 5.23905 112.021 4.15332C113.445 3.08585 115.001 2.20183 116.649 1.52239C118.285 0.846791 120.03 0.468446 121.801 0.405423C122.578 0.373918 123.357 0.423534 124.124 0.553455C124.903 0.685267 125.661 0.919472 126.377 1.24988C127.087 1.5747 127.735 2.01922 128.292 2.56366C128.873 3.14382 129.337 3.82903 129.659 4.58228C130.004 5.38037 130.16 6.24665 130.113 7.11396C130.065 7.97014 129.912 8.81738 129.659 9.63723C129.396 10.5149 129.042 11.3633 128.604 12.1689C128.115 13.0531 127.534 13.8846 126.872 14.6501ZM106.086 17.2306C106.054 17.3298 106.013 17.488 105.965 17.7016C105.918 17.9152 105.877 18.1322 105.845 18.3476C105.813 18.5629 105.789 18.753 105.774 18.9178C105.758 19.0827 105.774 19.1836 105.845 19.2156C106.038 19.3265 106.249 19.4023 106.469 19.4393C106.675 19.4916 106.891 19.4828 107.092 19.4141C109.07 16.7349 110.979 14.2868 112.818 12.0697C114.656 9.85255 116.469 7.61861 118.256 5.36786C118.478 5.10375 118.686 4.83965 118.878 4.57387C119.078 4.30329 119.305 4.0541 119.557 3.83034C118.857 4.02762 118.176 4.28484 117.521 4.5991C116.855 4.91923 116.208 5.27527 115.581 5.6656C114.491 6.33051 113.478 7.113 112.562 7.99879C111.633 8.89452 110.754 9.83902 109.928 10.8282C109.125 11.7933 108.381 12.8043 107.699 13.8561C107.017 14.906 106.477 16.0407 106.094 17.2306M117.967 15.9404C118.835 15.7745 119.686 15.5336 120.512 15.2204C121.462 14.8343 122.349 14.3073 123.141 13.6576C123.993 12.9704 124.715 12.1382 125.273 11.2C125.852 10.2431 126.308 9.21792 126.63 8.1485C126.793 7.5663 126.874 6.96461 126.872 6.36034C126.878 5.75863 126.694 5.17017 126.345 4.67816C126.067 4.25626 125.666 3.92782 125.196 3.73614C124.721 3.53857 124.221 3.40506 123.71 3.33915C123.178 3.27244 122.64 3.26398 122.106 3.31391C121.617 3.36097 121.131 3.43396 120.651 3.5326C121.094 3.59644 121.51 3.78566 121.848 4.07762C122.017 4.2155 122.152 4.38939 122.243 4.5863C122.334 4.78322 122.38 4.99806 122.376 5.21478C122.388 5.43442 122.329 5.65216 122.206 5.8355C122.08 6.00046 121.944 6.15775 121.799 6.30651C121.647 6.56355 121.471 6.80624 121.275 7.03153C121.084 7.24685 120.892 7.47114 120.7 7.7044L116.386 12.8637C115.143 14.3855 113.905 15.9073 112.674 17.4291C111.43 18.971 110.27 20.5781 109.2 22.2435C108.944 22.6091 108.697 22.9898 108.457 23.3857C108.216 23.7856 108.001 24.1996 107.811 24.6255C107.713 24.7887 107.625 24.9572 107.546 25.1301C107.429 25.3783 107.333 25.6361 107.26 25.9005C107.186 26.1419 107.145 26.392 107.139 26.6441C107.128 26.7313 107.153 26.8193 107.207 26.8891C107.26 26.9589 107.34 27.005 107.427 27.0175C108.349 27.1473 109.289 27.0791 110.182 26.8173C111.075 26.5733 111.936 26.2237 112.745 25.7761C113.503 25.3625 114.203 24.8536 114.829 24.2621C115.472 23.665 116.014 22.9692 116.434 22.2014C116.634 21.7813 116.786 21.3408 116.889 20.8877C117.001 20.427 116.941 19.9414 116.719 19.5217C116.575 19.1755 116.3 18.8994 115.952 18.753C115.607 18.6102 115.32 18.3567 115.136 18.033C114.95 17.7281 114.882 17.3663 114.945 17.0153C114.976 16.8455 115.049 16.6862 115.158 16.5519C115.267 16.4175 115.408 16.3125 115.569 16.2465C115.731 16.1799 115.903 16.1379 116.078 16.122C116.247 16.1069 116.437 16.0968 116.629 16.0968C116.86 16.0663 117.092 16.05 117.324 16.048C117.544 16.0467 117.761 16.0133 117.971 15.9488" fill="white"/>
<path d="M120.554 25.7172C121.099 25.1217 121.866 24.2532 122.854 23.1115C123.842 21.9699 124.872 20.7705 125.944 19.5133C127.015 18.2573 128.014 17.0579 128.94 15.9151C129.866 14.7724 130.553 13.9038 131 13.3095C130.934 12.9491 130.926 12.5807 130.975 12.2177C131.018 11.842 131.115 11.4744 131.263 11.126C131.399 10.8058 131.613 10.5242 131.886 10.3068C132.168 10.0885 132.51 9.95902 132.868 9.935C133.096 9.91551 133.325 9.94527 133.541 10.0222C133.756 10.0992 133.952 10.2215 134.115 10.3808C134.463 10.7087 134.684 11.1485 134.737 11.6222C134.769 11.9478 134.736 12.2765 134.64 12.5895C134.544 12.9075 134.415 13.2152 134.257 13.5079L134.785 13.7569C135.225 13.9786 135.708 14.1058 136.201 14.1304C136.682 14.155 137.148 14.2997 137.558 14.5509C137.971 14.8146 138.296 15.1947 138.491 15.6426C138.595 15.8416 138.635 16.0678 138.605 16.2901C138.574 16.5124 138.475 16.7199 138.321 16.8841C137.329 18.0414 136.425 19.1416 135.607 20.1845C134.79 21.2275 134.014 22.2777 133.282 23.3352C133.155 23.5337 132.963 23.873 132.707 24.353C132.465 24.8037 132.249 25.2676 132.061 25.7424C131.891 26.1899 131.821 26.5448 131.869 26.8106C131.916 27.0764 132.181 27.0747 132.659 26.8106C133.699 26.2156 134.637 25.4617 135.439 24.5767C136.333 23.6156 137.482 22.4078 138.888 20.9533C139.079 20.7211 139.288 20.4823 139.512 20.2333C139.714 20.0016 139.957 19.8083 140.229 19.663C140.462 19.563 140.719 19.5308 140.969 19.5705C141.22 19.6101 141.454 19.7198 141.644 19.8868C141.851 20.0419 142.01 20.253 142.1 20.4948C142.19 20.7367 142.208 20.9992 142.153 21.251C142.1 21.5576 141.959 21.8424 141.746 22.0702C141.537 22.2856 141.338 22.5093 141.147 22.7431C140.571 23.3386 140.076 23.8601 139.661 24.3075C139.246 24.755 138.884 25.1341 138.575 25.4447C138.254 25.7598 137.972 26.0402 137.727 26.2858L137.034 27.0041C136.681 27.3405 136.313 27.677 135.931 28.0134C135.546 28.3629 135.138 28.6866 134.71 28.9823C134.285 29.2755 133.827 29.5172 133.344 29.7023C132.87 29.8821 132.367 29.9744 131.859 29.9748C131.256 29.9915 130.66 29.8456 130.134 29.5526C129.676 29.2914 129.295 28.9148 129.031 28.4608C128.765 27.9791 128.61 27.4448 128.577 26.8964C128.529 26.2957 128.587 25.6914 128.746 25.1099C129.06 23.8329 129.603 22.6224 130.351 21.537C131.101 20.4458 131.875 19.3872 132.675 18.361C132.901 18.0627 133.116 17.765 133.321 17.4678C133.529 17.1701 133.76 16.8723 134.016 16.5729C133.779 16.4878 133.547 16.3889 133.321 16.2768C133.09 16.1695 132.873 16.0357 132.675 15.8781C132.483 16.1103 132.132 16.5656 131.621 17.2441C131.11 17.9226 130.503 18.7076 129.8 19.5991C129.097 20.4963 128.355 21.431 127.573 22.4033C126.79 23.3756 126.048 24.2902 125.345 25.147C124.643 25.9914 124.012 26.7108 123.453 27.3052C122.893 27.8996 122.502 28.2472 122.279 28.3481C122.132 28.445 121.963 28.5033 121.787 28.5174C121.612 28.5315 121.435 28.5011 121.275 28.4289C120.959 28.2829 120.693 28.0492 120.508 27.756C120.316 27.4531 120.208 27.1046 120.198 26.7467C120.179 26.3742 120.307 26.0089 120.556 25.729" fill="white"/>
<path d="M137.61 27.0579C137.452 26.1499 137.493 25.2185 137.731 24.3277C137.97 23.4088 138.31 22.5187 138.745 21.6732C139.17 20.8382 139.667 20.0412 140.231 19.2913C140.788 18.5455 141.323 17.8917 141.835 17.3298C142.468 16.576 143.157 15.8709 143.896 15.2204C144.628 14.577 145.431 14.0194 146.291 13.5584C146.948 13.1756 147.659 12.8921 148.4 12.7173C149.158 12.5237 149.945 12.4667 150.723 12.5491C151.451 12.6234 152.145 12.8888 152.735 13.3178C153.327 13.7485 153.719 14.4101 153.909 15.3028C154.068 16.1848 154.036 17.0904 153.814 17.959C153.586 18.8679 153.253 19.7478 152.823 20.5815C152.393 21.4217 151.896 22.2267 151.337 22.9887C150.78 23.749 150.245 24.427 149.733 25.0225C149.097 25.7808 148.408 26.4941 147.672 27.1571C146.945 27.812 146.141 28.3769 145.277 28.8393C144.591 29.2211 143.859 29.5134 143.097 29.709C142.325 29.9193 141.52 29.986 140.723 29.9058C139.99 29.8368 139.292 29.5613 138.711 29.1118C138.136 28.6633 137.768 27.9769 137.609 27.0528M147.955 16.3323C147.202 16.8849 146.482 17.4814 145.799 18.1188C144.726 19.1938 143.756 20.3651 142.901 21.6177C142.069 22.8299 141.432 24.163 141.013 25.5692C140.789 26.2319 140.757 26.6609 140.918 26.8594C141.079 27.0579 141.323 27.1168 141.659 27.0276C142.037 26.9281 142.4 26.7782 142.738 26.5818C143.053 26.4099 143.357 26.2189 143.649 26.0099C144.034 25.7437 144.401 25.4538 144.749 25.1419C145.101 24.8273 145.452 24.506 145.804 24.1746C146.508 23.4777 147.149 22.7218 147.721 21.9155C148.296 21.1058 148.838 20.2703 149.349 19.409C149.573 19.012 149.789 18.6083 149.996 18.1928C150.207 17.7721 150.378 17.3322 150.505 16.879C150.632 16.2499 150.632 15.8277 150.505 15.6123C150.447 15.51 150.357 15.4284 150.25 15.3795C150.142 15.3305 150.022 15.3166 149.906 15.3398C149.571 15.3968 149.253 15.5235 148.971 15.7116C148.621 15.9269 148.285 16.1338 147.965 16.3323" fill="white"/>
</g>
<defs>
<clipPath id="clip0_111_1274">
<rect width="154" height="30" fill="white"/>
</clipPath>
</defs>
</svg>
