<svg width="61" height="61" viewBox="0 0 61 61" fill="none" xmlns="http://www.w3.org/2000/svg">
<path d="M21.1925 41.775C21.4607 41.775 21.7302 41.687 21.9539 41.5083L31.3578 34.0047C31.5292 34.0274 31.7032 34.0405 31.8807 34.0405C34.0608 34.0405 35.835 32.2683 35.835 30.0898C35.835 29.349 35.63 28.6559 35.2746 28.0628L38.7177 20.6028C38.9798 20.0342 38.7691 19.3596 38.2297 19.0416C37.6898 18.7231 36.9968 18.8647 36.6257 19.3688L31.6321 26.1434C29.5671 26.2724 27.9265 27.993 27.9265 30.0906C27.9265 30.2392 27.9357 30.386 27.9518 30.5307L20.2531 39.7758C19.8523 40.2569 19.8811 40.9632 20.3198 41.4102C20.5579 41.6516 20.8746 41.7749 21.1925 41.7749L21.1925 41.775ZM31.8807 28.5748C31.9706 28.5748 32.0582 28.5844 32.1437 28.5992C32.1607 28.6018 32.1777 28.6044 32.1943 28.6079C32.2876 28.628 32.3779 28.6563 32.4642 28.6924C32.4717 28.6955 32.4791 28.6994 32.4869 28.7029C32.5209 28.7182 32.5545 28.7338 32.5872 28.7513C32.6012 28.7587 32.6151 28.767 32.6287 28.7748C32.6544 28.7896 32.6792 28.8049 32.7041 28.821C32.7198 28.8314 32.7355 28.8419 32.7508 28.8528C32.773 28.8685 32.7944 28.8846 32.8153 28.9012C32.8306 28.9129 32.8454 28.9251 32.8602 28.9378C32.882 28.9565 32.9034 28.9761 32.9239 28.9961C32.9357 29.0075 32.9479 29.0188 32.9592 29.0306C33.2266 29.3042 33.3923 29.678 33.3923 30.0902C33.3923 30.9233 32.7141 31.6009 31.8803 31.6009C31.6919 31.6009 31.5122 31.5647 31.346 31.5015C31.3234 31.4928 31.3002 31.4845 31.278 31.475C31.251 31.4632 31.2248 31.4501 31.1991 31.4366C31.1751 31.4244 31.1515 31.4118 31.128 31.3983C31.1036 31.3843 31.0791 31.3695 31.0556 31.3543C31.032 31.339 31.0094 31.3225 30.9871 31.3059C30.9653 31.2898 30.9431 31.2745 30.9226 31.2575C30.8842 31.2257 30.8467 31.1922 30.8114 31.1573C30.7935 31.139 30.7765 31.1194 30.7595 31.1002C30.7398 31.0785 30.7202 31.0567 30.7015 31.0336C30.6849 31.0127 30.6692 30.9913 30.6539 30.97C30.6365 30.946 30.6203 30.9216 30.6042 30.8963C30.5903 30.8745 30.5767 30.8532 30.5641 30.8305C30.548 30.8018 30.5331 30.7717 30.5187 30.7416C30.5091 30.7216 30.4982 30.702 30.4895 30.6815C30.469 30.6336 30.4511 30.5848 30.4354 30.5342C30.3923 30.3939 30.3687 30.2445 30.3687 30.0902C30.3691 29.2545 31.0473 28.5748 31.8807 28.5748Z" fill="#FBF583"/>
<path d="M12.5467 49.9367C17.0216 54.0769 22.6899 56.5082 28.7531 56.9004C28.7627 56.9013 28.7718 56.903 28.7814 56.9035C28.8547 56.9078 28.9254 56.9113 28.9973 56.9152C29.109 56.9213 29.221 56.927 29.3327 56.9318C29.4692 56.9379 29.6048 56.9427 29.7387 56.9466C29.805 56.9483 29.8717 56.9501 29.9385 56.9514C30.1264 56.9553 30.3131 56.9584 30.4984 56.9584C30.6785 56.9584 30.8621 56.9558 31.0479 56.9518C31.1225 56.9501 31.1966 56.9483 31.2712 56.9462C31.3837 56.9427 31.4971 56.9383 31.611 56.9335C31.7496 56.9279 31.8883 56.9209 32.0266 56.9135C32.0889 56.91 32.1504 56.907 32.2132 56.903C32.2211 56.9026 32.2289 56.9009 32.2372 56.9004C38.2965 56.51 43.9611 54.083 48.4358 49.9494C48.52 49.8723 48.6028 49.7956 48.6844 49.718C48.7167 49.6871 48.7494 49.6566 48.7817 49.6257C48.9243 49.4897 49.0643 49.3538 49.1995 49.2183C49.2029 49.2148 49.2064 49.2117 49.2099 49.2083C49.216 49.2022 49.2221 49.1956 49.2282 49.1895C49.3447 49.0727 49.4598 48.9542 49.575 48.8344C49.646 48.7608 49.7162 48.6863 49.7865 48.6122C49.7974 48.6004 49.8087 48.5882 49.8196 48.5765C54.2074 43.8955 56.7089 37.8874 56.9404 31.4789C56.9426 31.4179 56.9452 31.3569 56.947 31.2964C56.9496 31.2118 56.9518 31.1269 56.9535 31.0419C56.9575 30.8598 56.9601 30.6785 56.9601 30.499C56.9601 30.3182 56.9575 30.1352 56.9535 29.9517C56.9518 29.8707 56.95 29.7892 56.9474 29.7082C56.9452 29.6354 56.9422 29.5626 56.9396 29.4899C56.7023 23.1174 54.2208 17.1419 49.8732 12.476C49.8353 12.435 49.7973 12.3941 49.7594 12.3535C49.7057 12.2965 49.6517 12.2394 49.5976 12.1832C49.4681 12.0477 49.3381 11.9139 49.2068 11.7823C49.0791 11.6555 48.9522 11.5322 48.8257 11.4111C48.7559 11.344 48.6857 11.2773 48.615 11.2111C48.5732 11.1719 48.5317 11.1335 48.4903 11.0947C44.0075 6.93011 38.3219 4.48528 32.2381 4.09309C32.2303 4.09265 32.2224 4.09091 32.2141 4.09047C32.1518 4.08655 32.0898 4.08394 32.0279 4.08045C31.8879 4.07261 31.7475 4.06564 31.6071 4.05997C31.495 4.05518 31.3833 4.05126 31.273 4.04777C31.198 4.04559 31.123 4.04385 31.048 4.04211C30.8626 4.03819 30.679 4.03557 30.4993 4.03557C30.314 4.03557 30.1273 4.03819 29.9394 4.04254C29.8726 4.04385 29.8064 4.04559 29.7396 4.04734C29.6092 4.05126 29.4771 4.05605 29.3436 4.06172C29.2241 4.06694 29.1051 4.07261 28.986 4.07958C28.918 4.0835 28.8513 4.08655 28.7824 4.09047C28.7736 4.09091 28.7649 4.09265 28.7562 4.09352C22.6606 4.48741 16.9642 6.94181 12.4783 11.1213C12.4526 11.1452 12.4269 11.1688 12.4007 11.1932C12.3222 11.2668 12.2441 11.3404 12.1665 11.4154C12.04 11.5365 11.9122 11.6598 11.7827 11.7879C11.6471 11.9243 11.5145 12.062 11.3832 12.1997C11.3344 12.2507 11.286 12.3021 11.2376 12.3535C11.1874 12.4066 11.1381 12.4598 11.0893 12.5134C6.93308 16.9909 4.49129 22.6683 4.09618 28.7431C4.09487 28.7558 4.09269 28.768 4.09182 28.7806C4.08615 28.8721 4.08179 28.961 4.07699 29.0507C4.0735 29.1183 4.06958 29.1858 4.06653 29.2534C4.05868 29.4207 4.05301 29.5854 4.04864 29.7488C4.0469 29.8102 4.04559 29.8716 4.04428 29.9331C4.03992 30.123 4.0373 30.3117 4.0373 30.4995C4.0373 30.6795 4.03992 30.8638 4.04385 31.0498C4.04516 31.123 4.04734 31.1958 4.04908 31.269C4.05257 31.3953 4.0578 31.5234 4.06304 31.652C4.06783 31.7635 4.07307 31.8751 4.07961 31.9866C4.08353 32.0624 4.08702 32.1378 4.09182 32.2141C4.09226 32.225 4.09444 32.2354 4.09531 32.2459C4.49 38.3456 6.94918 44.0451 11.1355 48.5325C11.1595 48.5582 11.1835 48.5843 11.2075 48.6101C11.2725 48.6793 11.3375 48.7486 11.4037 48.817C11.5293 48.9486 11.6558 49.0798 11.7858 49.21C11.9245 49.3486 12.0679 49.4872 12.2132 49.6257C12.2485 49.6597 12.2843 49.6937 12.32 49.7272C12.3946 49.7965 12.4701 49.8662 12.5459 49.9364L12.5467 49.9367ZM6.65081 33.3589H13.6509C14.3251 33.3589 14.872 32.8126 14.872 32.1389V28.8552C14.872 28.1816 14.3251 27.6352 13.6509 27.6352H6.65126C7.18637 23.1516 8.95919 19.0432 11.6195 15.6642L16.5632 20.6066C16.7922 20.8354 17.1031 20.9643 17.4267 20.9643H17.4272C17.7512 20.9643 18.0622 20.8354 18.2911 20.6062L20.6095 18.2851C21.0853 17.8084 21.0853 17.0371 20.6091 16.5609L15.6644 11.6185C19.0439 8.95715 23.152 7.18325 27.6362 6.64818V13.6494C27.6362 14.323 28.183 14.8695 28.8573 14.8695H32.1382C32.8125 14.8695 33.3594 14.3231 33.3594 13.6494L33.3599 6.64739C37.844 7.18203 41.9526 8.95536 45.3327 11.6173L40.3889 16.5609C39.9127 17.0372 39.9127 17.8089 40.3885 18.2851L42.7069 20.6062C42.9359 20.8354 43.2468 20.9643 43.5709 20.9643H43.5713C43.8953 20.9643 44.2058 20.8358 44.4348 20.6066L49.3786 15.6642C52.0388 19.0437 53.8121 23.1525 54.3472 27.6352H47.3454C46.6712 27.6352 46.1242 28.1815 46.1242 28.8552V32.1389C46.1242 32.8125 46.6711 33.3589 47.3454 33.3589H54.3481C53.8139 37.8429 52.0406 41.9518 49.3799 45.3321L44.4352 40.3894C44.2063 40.1606 43.8953 40.0317 43.5717 40.0317H43.5713C43.2473 40.0317 42.9363 40.1606 42.7074 40.3898L40.3889 42.7105C39.9131 43.1867 39.9131 43.9585 40.3894 44.4346L45.3336 49.3787C41.9537 52.0401 37.8446 53.8135 33.3608 54.3482V47.3465C33.3608 46.6729 32.8139 46.1264 32.1396 46.1264H28.8587C28.1844 46.1264 27.6375 46.6728 27.6375 47.3465V54.3477C23.1538 53.8126 19.0452 52.0393 15.6658 49.3778L20.6109 44.4351C21.0871 43.9588 21.0875 43.1871 20.6113 42.7109L18.2929 40.3898C18.0639 40.1606 17.753 40.0317 17.4289 40.0317H17.4285C17.1045 40.0317 16.794 40.1602 16.565 40.3894L11.6204 45.3321C8.95873 41.9518 7.18592 37.8434 6.6517 33.3589H6.65081ZM6.48509 30.0753H12.4293V30.9189H6.48509C6.48247 30.779 6.47985 30.6396 6.47985 30.4993C6.47985 30.3577 6.48291 30.2165 6.48509 30.0753ZM13.8227 13.2276L18.0199 17.4231L17.4268 18.017L13.2292 13.8211C13.4233 13.6198 13.6213 13.4224 13.8227 13.2276ZM30.4936 6.47616H30.5185C30.6519 6.47616 30.7845 6.47878 30.9175 6.48139V12.4285H30.0789V6.48139C30.2167 6.47921 30.3549 6.47616 30.4936 6.47616ZM47.7684 13.8211L43.5708 18.0171L42.9773 17.4232L47.174 13.2268C47.3759 13.4216 47.5739 13.6198 47.7684 13.8211ZM54.5125 30.9198H48.5656V30.0763H54.5125C54.5151 30.2174 54.5177 30.3586 54.5177 30.5006C54.5177 30.6405 54.5151 30.7799 54.5125 30.9198ZM47.1748 47.7697L42.9776 43.5724L43.5712 42.9785L47.7693 47.1754C47.5743 47.3767 47.3763 47.575 47.1748 47.7697ZM30.5207 54.5195H30.4889C30.3515 54.5195 30.215 54.5169 30.0781 54.5143V48.5672H30.9167V54.5143C30.785 54.5164 30.6533 54.5191 30.5207 54.5195ZM17.4259 42.978L18.019 43.5719L13.8209 47.7683C13.6198 47.574 13.4219 47.3761 13.2273 47.1748L17.4259 42.978Z" fill="#FBF583"/>
<path d="M54.3388 58.5557H42.5C46.0282 57.046 49.271 54.8617 52.0666 52.0665C57.8273 46.3055 61 38.6466 61 30.5005C61 22.3525 57.8273 14.6935 52.0666 8.93226C46.3059 3.17099 38.6469 0 30.5001 0C22.3523 0 14.6923 3.1721 8.9325 8.93226C3.17228 14.6921 0 22.3511 0 30.4994C0 38.6456 3.17229 46.3053 8.93206 52.0654C11.7271 54.8609 14.9705 57.0449 18.4983 58.5546L6.66053 58.5551C5.98629 58.5551 5.43935 59.1015 5.43935 59.7751C5.43935 60.4488 5.98623 60.9952 6.66053 60.9952H30.1082C30.2386 60.9969 30.369 61 30.4999 61C30.6307 61 30.7611 60.9969 30.8915 60.9952H54.3392C55.0135 60.9952 55.5604 60.4488 55.5604 59.7751C55.56 59.1015 55.0131 58.5551 54.3389 58.5551L54.3388 58.5557ZM2.44168 30.5001C2.44168 15.0277 15.0286 2.43992 30.4992 2.43992C45.9699 2.43992 58.5568 15.0277 58.5568 30.5001C58.5568 45.8475 46.1731 58.3538 30.8743 58.5557H30.1238C14.8251 58.354 2.44138 45.8475 2.44138 30.5001H2.44168Z" fill="#FBF583"/>
</svg>
