<svg width="160" height="160" viewBox="0 0 160 160" fill="none" xmlns="http://www.w3.org/2000/svg">
<circle cx="79.5" cy="83.5" r="22.5" fill="#ED7253"/>
<path d="M80 160C35.8872 160 0 124.113 0 80C0 35.8872 35.8872 0 80 0C124.113 0 160 35.8872 160 80C160 124.113 124.113 160 80 160ZM80 3.86949C38.0225 3.86949 3.87244 38.0195 3.87244 79.997C3.87244 121.975 38.0225 156.125 80 156.125C121.978 156.125 156.128 121.975 156.128 79.997C156.128 38.0195 121.978 3.86949 80 3.86949Z" fill="white"/>
<path d="M123.054 72.4291H115.406C114.502 68.1721 112.814 64.072 110.457 60.4048L115.886 54.9335C116.707 54.1052 116.707 52.7676 115.886 51.9382L108.306 44.2977C107.508 43.4924 106.085 43.4924 105.287 44.2977L99.8778 49.7492C96.2454 47.3817 92.1865 45.6848 87.9699 44.7735V37.0454C87.9699 35.8714 87.0171 34.9187 85.8432 34.9187H75.1242C73.9503 34.9187 72.9975 35.8714 72.9975 37.0454V44.7735C68.7821 45.6847 64.7212 47.3794 61.0897 49.7492L55.6806 44.2977C54.8823 43.4924 53.4595 43.4924 52.6611 44.2977L45.0817 51.9382C44.2603 52.7666 44.2603 54.1041 45.0817 54.9335L50.5102 60.4048C48.1531 64.072 46.4652 68.1721 45.561 72.4291H37.9134C36.7394 72.4291 35.7867 73.3819 35.7867 74.5558V85.36C35.7867 86.534 36.7395 87.4868 37.9134 87.4868H45.561C46.4654 91.745 48.1532 95.8439 50.5102 99.5111L45.0817 104.982C44.2603 105.811 44.2603 107.148 45.0817 107.978L52.6611 115.618C53.0598 116.02 53.6047 116.246 54.1704 116.246C54.7372 116.246 55.281 116.02 55.6796 115.618L61.0886 110.167C64.721 112.534 68.7798 114.231 72.9965 115.142V122.87C72.9965 124.044 73.9492 124.997 75.1232 124.997H85.8421C87.0161 124.997 87.9688 124.044 87.9688 122.87V115.142C92.1843 114.231 96.2452 112.536 99.8767 110.167L105.286 115.618C106.084 116.423 107.507 116.423 108.305 115.618L115.885 107.978C116.706 107.149 116.706 105.812 115.885 104.982L110.456 99.5111C112.813 95.8439 114.501 91.745 115.405 87.4868H123.053C124.227 87.4868 125.18 86.534 125.18 85.36L125.181 74.5547C125.181 73.3795 124.228 72.4291 123.054 72.4291ZM80.4837 97.9625C70.6241 97.9625 62.6035 89.8852 62.6035 79.9578C62.6035 70.0304 70.6241 61.9532 80.4837 61.9532C90.3432 61.9532 98.3639 70.0304 98.3639 79.9578C98.365 89.884 90.3432 97.9625 80.4837 97.9625Z" fill="white"/>
<path d="M80.4837 66.2061C72.9689 66.2061 66.8558 72.3754 66.8558 79.9584C66.8558 87.5414 72.9697 93.7107 80.4837 93.7107C87.9985 93.7107 94.1115 87.5414 94.1115 79.9584C94.1115 72.3754 87.9985 66.2061 80.4837 66.2061Z" fill="white"/>
<path d="M135.786 48.2064C135.096 48.2064 134.419 47.8712 134.01 47.2514C122.589 29.9587 101.199 18.339 80.7806 18.339C61.8197 18.339 44.274 26.9737 32.639 42.0279C31.9201 42.9564 30.5849 43.1258 29.6575 42.4104C28.7267 41.6926 28.5573 40.3574 29.275 39.4277C41.7197 23.323 60.4935 14.0855 80.7818 14.0855C102.567 14.0855 125.384 26.4714 137.559 44.9058C138.206 45.885 137.936 47.2042 136.956 47.8516C136.595 48.0936 136.189 48.2064 135.786 48.2064Z" fill="white"/>
<path d="M135.783 48.2064H125.774C124.6 48.2064 123.647 47.2537 123.647 46.0797C123.647 44.9058 124.6 43.953 125.774 43.953H133.64L133.583 36.7077C133.573 35.5338 134.518 34.5741 135.692 34.5649C136.819 34.5557 137.825 35.5004 137.835 36.6743L137.91 46.0626C137.914 46.6294 137.692 47.1743 137.293 47.5775C136.893 47.9808 136.35 48.2064 135.783 48.2064Z" fill="white"/>
<path d="M97.0087 142.083C96.1031 142.083 95.2644 141.5 94.9787 140.59C94.6285 139.469 95.2541 138.276 96.375 137.926C122.614 129.729 141.659 105.127 141.659 79.4267C141.659 71.8715 140.302 64.5006 137.625 57.5131C137.206 56.4163 137.753 55.187 138.85 54.7677C139.945 54.3472 141.176 54.8956 141.595 55.9923C144.458 63.4659 145.91 71.3494 145.91 79.4266C145.91 106.939 125.61 133.246 97.6414 141.984C97.4341 142.05 97.2198 142.081 97.0101 142.081L97.0087 142.083Z" fill="white"/>
<path d="M105.553 145.911C105.261 145.911 104.965 145.85 104.684 145.725L96.1403 141.894C95.5746 141.64 95.1495 141.153 94.9721 140.56C94.7958 139.967 94.8868 139.325 95.2209 138.805L100.292 130.915C100.927 129.926 102.242 129.642 103.23 130.274C104.219 130.909 104.505 132.223 103.871 133.212L100.136 139.023L106.425 141.843C107.496 142.324 107.975 143.582 107.494 144.653C107.14 145.443 106.365 145.911 105.553 145.911Z" fill="white"/>
<path d="M80.7816 144.764C44.8678 144.764 15.652 115.454 15.652 79.4278C15.652 71.406 19.4365 61.5556 22.1991 54.3634L22.5736 53.3853C22.9941 52.2897 24.221 51.739 25.3201 52.1607C26.4169 52.5812 26.9641 53.8093 26.5447 54.9072L26.168 55.8876C23.524 62.7701 19.9031 72.1952 19.9031 79.4278C19.9031 113.109 47.2131 140.511 80.7798 140.511C81.6231 140.511 82.4641 140.494 83.2994 140.459C84.4883 140.414 85.463 141.323 85.5114 142.496C85.5586 143.669 84.6473 144.658 83.4745 144.708C82.5817 144.744 81.6848 144.764 80.7816 144.764Z" fill="white"/>
<path d="M28.5228 65.1915C27.7083 65.1915 26.9318 64.7203 26.578 63.9289L23.524 57.0578L17.1771 60.2906C16.1322 60.8205 14.8511 60.4081 14.3177 59.3597C13.7843 58.3136 14.2002 57.0337 15.2485 56.5003L23.593 52.2503C24.1138 51.9854 24.7197 51.9462 25.2693 52.142C25.8188 52.3367 26.2658 52.748 26.502 53.2814L30.4662 62.2019C30.9431 63.2756 30.4593 64.5314 29.3879 65.0084C29.1044 65.1316 28.8119 65.1915 28.5228 65.1915Z" fill="white"/>
</svg>
