<svg width="136" height="160" viewBox="0 0 136 160" fill="none" xmlns="http://www.w3.org/2000/svg">
<circle cx="92.5" cy="47.5" r="22.5" fill="#ED7253"/>
<path fill-rule="evenodd" clip-rule="evenodd" d="M12.6018 0.00200421H123.21C126.684 0.00200421 129.838 1.41939 132.117 3.69752C134.395 5.97566 135.812 9.13144 135.812 12.6038V123.212C135.812 126.661 134.413 129.72 132.164 131.976L132.143 131.997C129.912 134.225 126.817 135.635 123.426 135.793L72.1919 135.709L45.4239 155.146L37.7329 160L37.7688 135.814H12.6005C9.12817 135.814 5.97359 134.397 3.69552 132.118C1.41745 129.84 0 126.684 0 123.213V12.6018C0 9.12848 1.41739 5.97359 3.69552 3.69552C5.97366 1.41745 9.12944 0 12.6005 0L12.6018 0.00200421ZM123.213 10.0603H12.6018C11.9074 10.0603 11.2688 10.348 10.8075 10.8081C10.3474 11.2694 10.0597 11.9068 10.0597 12.6037V123.212C10.0597 123.907 10.3474 124.545 10.8075 125.006C11.2688 125.467 11.9061 125.754 12.6018 125.754H47.8046L47.7799 141.806L67.9682 126.522L69.0818 125.819L70.4211 125.756L122.995 125.777C123.796 125.741 124.53 125.415 125.054 124.906L125.075 124.885C125.493 124.457 125.754 123.869 125.754 123.213L125.757 12.6018C125.757 11.9061 125.469 11.2675 125.009 10.8062C124.548 10.3461 123.909 10.0584 123.213 10.0584V10.0603Z" fill="white"/>
<path fill-rule="evenodd" clip-rule="evenodd" d="M42.973 96.9407L40.8884 85.764L53.6895 83.3769C57.6305 82.6415 56.259 75.283 52.3168 76.017L39.5157 78.4041L38.8795 74.9927L51.4537 72.6477C72.0611 68.8049 66.5427 38.9338 45.8845 42.7845L27.8253 46.1524C26.243 46.4476 25.1927 47.9778 25.489 49.5613L29.1496 69.1916L27.6938 69.4632C23.7516 70.1985 25.1231 77.557 29.0666 76.8218L30.5224 76.5502L31.1585 79.9616L29.7027 80.2332C25.7605 80.9686 27.1333 88.3271 31.0755 87.5931L32.5313 87.3216L34.6158 98.4983C35.3624 102.506 43.7209 100.947 42.973 96.9407ZM48.9377 65.5039L37.5079 67.6356L34.6831 52.4894L46.1128 50.3577C56.8889 48.3476 59.7152 63.4938 48.9377 65.5039Z" fill="white"/>
<path fill-rule="evenodd" clip-rule="evenodd" d="M73.1346 108.744L78.1418 101.441L86.5062 107.176C89.0818 108.942 92.3791 104.133 89.8036 102.367L81.4392 96.6322L82.9682 94.4025L91.185 100.036C104.65 109.268 118.062 89.7785 104.564 80.5236L92.7637 72.4323C91.7295 71.723 90.3083 71.9883 89.599 73.0226L80.8045 85.8497L79.8534 85.1975C77.2777 83.4316 73.9804 88.2393 76.5559 90.0054L77.5071 90.6576L75.9781 92.8873L75.0269 92.235C72.4513 90.4691 69.154 95.2769 71.7295 97.0438L72.6806 97.6961L67.6734 104.999C65.8778 107.618 71.339 111.363 73.1346 108.744ZM93.7321 94.716L86.2633 89.5945L93.049 79.6974L100.518 84.819C107.559 89.6465 100.774 99.5448 93.7321 94.716Z" fill="white"/>
<path fill-rule="evenodd" clip-rule="evenodd" d="M83.3948 59.6109L85.7062 52.0577L94.3569 54.7052C97.0206 55.5199 98.5423 50.5472 95.8785 49.7313L87.2278 47.0838L87.9334 44.7785L96.4305 47.3789C110.356 51.6398 116.567 31.4689 102.606 27.1981L90.4013 23.4629C89.3324 23.1356 88.1928 23.7407 87.8654 24.8109L83.8054 38.0771L82.8221 37.7758C80.1584 36.9611 78.6354 41.9338 81.3005 42.7484L82.2839 43.0498L81.5783 45.355L80.5949 45.0537C77.9312 44.239 76.4082 49.2118 79.0733 50.0276L80.0567 50.329L77.7452 57.8822C76.9181 60.5905 82.5665 62.3194 83.3948 59.6109ZM97.1794 42.1695L89.455 39.806L92.5874 29.5705L100.312 31.9341C107.594 34.1625 104.462 44.3981 97.1794 42.1695Z" fill="white"/>
</svg>
