<svg width="116" height="176" viewBox="0 0 116 176" fill="none" xmlns="http://www.w3.org/2000/svg">
<circle cx="57.5" cy="22.5" r="22.5" fill="#ED7253"/>
<path d="M102.192 32.4966L78.8846 22.5065C59.2613 14.0935 37.5369 13.8326 17.7029 21.7615L14.074 23.2136C4.05713 27.2194 -1.67962 37.8075 0.437038 48.3885L1.77304 55.0708C2.73881 59.9019 5.87258 63.8407 10.0347 66.0356V75.8338C10.0347 82.817 13.7573 89.2943 19.6302 92.9144C19.6369 98.7271 21.0331 104.45 23.5624 109.645C21.535 111.238 19.4317 112.511 17.2125 113.198C14.5805 114.017 14.1389 117.572 16.5121 118.999C21.5707 122.022 27.6487 122.688 33.559 122.407C37.0474 125.291 40.991 127.524 45.2044 129.014L45.2088 134.432C24.0508 134.432 6.83882 151.644 6.83882 172.802C6.83882 174.566 8.26852 176 10.0373 176H105.964C107.732 176 109.162 174.568 109.162 172.802C109.162 151.643 91.9496 134.432 70.7922 134.432V129.012C74.9831 127.528 78.8951 125.316 82.377 122.443C88.4369 122.724 94.591 121.921 99.4844 118.997C101.838 117.596 101.441 114.025 98.784 113.2C96.5626 112.513 94.4548 111.233 92.4272 109.638C94.9565 104.441 96.3572 98.738 96.3661 92.9144C102.246 89.2922 105.968 82.8148 105.968 75.8315V71.413C110.259 69.3566 113.556 65.4622 114.662 60.4997L115.238 57.9258C117.566 47.4293 112.082 36.7346 102.194 32.4967L102.192 32.4966ZM16.4353 75.8319V67.8894C16.442 67.8894 16.451 67.8916 16.4576 67.8916L19.6338 68.0901V84.6021C17.6152 82.1753 16.4353 79.0792 16.4353 75.8319ZM26.0286 92.8634V68.4889L89.9795 72.4859V92.8634C89.9795 97.0968 89.1364 101.276 87.5305 105.149C82.4406 99.9341 77.9795 94.1104 72.8406 91.4005C68.0987 88.8868 62.3486 89.2615 58.0017 92.1588C53.659 89.2615 47.9111 88.8846 43.1628 91.4005C38.0662 94.0994 33.6632 99.8158 28.4952 105.131C26.8915 101.261 26.0283 97.0881 26.0283 92.864L26.0286 92.8634ZM102.61 169.605H13.3982C15.0064 153.469 28.6608 140.828 45.2133 140.828V144.026C45.2133 145.407 46.0921 146.627 47.4013 147.06C54.4051 149.39 61.9279 149.292 68.6085 147.06C69.9133 146.625 70.792 145.405 70.792 144.024V140.826C87.3462 140.826 101.001 153.47 102.609 169.605L102.61 169.605ZM64.398 141.615C60.207 142.623 55.7994 142.623 51.6089 141.615V130.679C56.0475 131.424 60.0156 131.411 64.398 130.672V141.615ZM43.2114 121.177C47.3332 120.314 54.6557 118.278 58.0034 116.007C61.2866 118.262 68.7855 120.336 72.8246 121.177C63.7647 125.928 52.784 126.187 43.2114 121.177ZM60.2988 109.585C59.0944 108.339 56.913 108.339 55.7063 109.585C52.3451 113.043 36.4531 117.378 26.1667 115.686C34.2274 109.942 40.486 100.04 46.1514 97.0482C49.361 95.353 53.202 95.9419 55.7086 98.5158C56.9131 99.7559 59.0878 99.7559 60.2944 98.5158C62.7991 95.9397 66.6444 95.3508 69.8516 97.0482H69.8539C75.5303 100.05 81.7464 109.925 89.8362 115.686C79.5875 117.37 63.6888 113.074 60.2988 109.585ZM99.5721 75.8302C99.5721 79.0799 98.3922 82.1733 96.3737 84.5977V72.881C98.2695 73.0014 97.8859 73.0126 99.5677 72.9769L99.5721 75.8302ZM108.982 56.5393L108.413 59.1132C107.383 63.7502 103.178 66.8798 98.4524 66.6074L16.8521 61.5064C12.5184 61.2343 8.89592 58.0716 8.04172 53.8135L6.70571 47.1312C5.1935 39.5747 9.29299 32.013 16.448 29.1518L20.0769 27.6998C38.3577 20.386 58.3378 20.6629 76.3663 28.3845L99.6741 38.3746C106.736 41.4013 110.654 49.0364 108.982 56.5393Z" fill="white"/>
</svg>
