<svg width="160" height="160" viewBox="0 0 160 160" fill="none" xmlns="http://www.w3.org/2000/svg">
<circle cx="77.5" cy="79.5" r="22.5" fill="#ED7253"/>
<path d="M159.269 134.521L139.27 114.521C138.292 113.543 136.712 113.543 135.735 114.521C134.757 115.499 134.757 117.079 135.735 118.055L153.967 136.287L136.29 153.964L113.31 130.985C112.84 130.515 112.205 130.253 111.542 130.253H98.435L90.0077 121.825C90.7677 121.462 91.4797 120.995 92.0947 120.38C93.4172 119.055 94.1572 117.32 94.252 115.463C96.04 115.37 97.8023 114.67 99.1648 113.307C100.487 111.985 101.227 110.247 101.322 108.392C103.11 108.3 104.872 107.6 106.235 106.237C107.213 105.262 107.213 103.679 106.235 102.703C105.257 101.725 103.675 101.725 102.697 102.703C101.719 103.672 100.135 103.672 99.1625 102.703L88.5543 92.0945C87.5789 91.119 87.5789 89.5342 88.5543 88.5599C89.4963 87.6124 91.1447 87.6124 92.0866 88.5599C92.3143 88.7876 92.5788 88.9494 92.8544 89.07C93.1424 89.5175 93.4694 89.9427 93.8566 90.3278L97.1043 93.5755L98.6668 96.6983C100.249 99.868 103.754 101.493 107.195 100.618L113.93 98.9327C113.747 102.288 114.077 107.01 116.84 109.773C117.817 110.751 119.4 110.751 120.374 109.773C121.352 108.795 121.352 107.215 120.374 106.238C118.429 104.296 118.804 98.581 119.289 96.1179C119.455 95.2775 119.179 94.4081 118.56 93.8199C117.937 93.2273 117.06 92.9896 116.229 93.205L105.979 95.7675C104.837 96.0554 103.665 95.5152 103.137 94.4594L102.554 93.2965L114.905 87.6817C116.794 86.8268 119.044 87.2297 120.509 88.6962L130.245 98.4315V111.539C130.245 112.921 131.365 114.039 132.745 114.039C134.124 114.039 135.245 112.921 135.245 111.539V97.3958C135.245 96.7307 134.982 96.0956 134.513 95.628L124.045 85.1604C121.115 82.2273 116.615 81.415 112.837 83.1303L109.425 84.6827L104.463 79.7208C101.628 76.8882 96.6881 76.8905 93.8578 79.7208C92.9125 80.6661 92.2809 81.8279 91.9449 83.0856C89.5075 82.5755 86.8321 83.2128 85.0176 85.0275C83.1348 86.9103 82.483 89.5498 83.022 91.9729C81.8122 92.3055 80.6594 92.9149 79.7118 93.8657C77.8167 95.763 77.1716 98.426 77.7341 100.866C76.502 101.186 75.3391 101.779 74.4116 102.703C72.9942 104.118 72.2141 106.003 72.2141 108.007C72.2141 110.012 72.9942 111.894 74.4116 113.31L81.4818 120.38L81.4896 120.384L95.6246 134.521C96.0945 134.991 96.7295 135.254 97.3924 135.254H110.499L134.514 159.268C135.001 159.756 135.641 160 136.282 160C136.921 160 137.562 159.754 138.049 159.268L159.261 138.056C160.239 137.078 160.239 135.498 159.261 134.522L159.269 134.521ZM97.3986 83.2555C98.3405 82.3079 99.9889 82.3079 100.933 83.2555L104.57 86.8925L99.7074 89.1024L97.3972 86.7921C96.9251 86.32 96.665 85.6917 96.665 85.0243C96.665 84.3569 96.9251 83.7297 97.3972 83.2565L97.3986 83.2555ZM83.2536 97.3947C83.7413 96.907 84.3808 96.6648 85.0237 96.6648C85.6665 96.6648 86.3038 96.907 86.7915 97.3947L95.6317 106.235C96.1038 106.705 96.3616 107.332 96.3616 108.003C96.3616 108.672 96.1015 109.301 95.6317 109.771C94.6518 110.748 93.067 110.746 92.0937 109.771L83.2567 100.934C82.2812 99.9581 82.2812 98.3711 83.2567 97.3956L83.2536 97.3947ZM77.2191 108.002C77.2191 107.332 77.4791 106.707 77.9512 106.234C78.4211 105.762 79.0483 105.502 79.719 105.502C80.3887 105.502 81.0137 105.762 81.4836 106.232L88.556 113.304C89.0281 113.776 89.2882 114.405 89.2882 115.072C89.2882 115.739 89.0281 116.367 88.5583 116.837C87.6163 117.786 85.9679 117.786 85.0237 116.837L77.9512 109.766C77.4792 109.294 77.2191 108.666 77.2191 107.998L77.2191 108.002Z" fill="white"/>
<path d="M76.9959 68.0613C78.2013 67.7265 79.3385 67.0859 80.2839 66.1417C83.2067 63.2166 83.2067 58.4586 80.2839 55.5346L75.322 50.5727L76.8744 47.1576C78.5898 43.3854 77.7695 38.8797 74.8421 35.95L64.3744 25.4824C63.9046 25.0125 63.2695 24.7503 62.6066 24.7503H48.4639C47.0845 24.7503 45.9639 25.8674 45.9639 27.2502C45.9639 28.633 47.0845 29.7502 48.4639 29.7502H61.5709L71.3062 39.4855C72.7716 40.9509 73.1812 43.2032 72.3241 45.0903L71.5462 46.7979L65.4837 40.7354C64.506 39.7577 62.9257 39.7577 61.9491 40.7354C60.9715 41.7131 60.9715 43.2934 61.9491 44.2699L76.7493 59.0701C77.7247 60.0455 77.7247 61.6326 76.7493 62.608C75.7772 63.5857 74.189 63.5857 73.2113 62.608C72.2336 61.6304 70.6533 61.6304 69.6768 62.608C69.189 63.0957 68.9446 63.7353 68.9446 64.3759C68.9446 65.0154 69.1902 65.656 69.6768 66.1437L71.4446 67.9115C72.4201 68.887 72.4201 70.4718 71.4446 71.4461C70.5026 72.3936 68.8542 72.3936 67.9101 71.4461L66.14 69.6782C65.1623 68.7006 63.5798 68.7006 62.6055 69.6782C61.6278 70.6559 61.6278 72.2362 62.6055 73.2128C63.0775 73.6849 63.3376 74.3132 63.3376 74.9806C63.3376 75.648 63.0776 76.2752 62.6055 76.7485C61.6635 77.696 60.0151 77.696 59.0709 76.7485L57.3031 74.9806C56.3254 74.0029 54.7451 74.0029 53.7686 74.9806C52.7909 75.9583 52.7909 77.5386 53.7686 78.5151C54.744 79.4906 54.744 81.0776 53.7686 82.0497C52.7931 83.0274 51.2061 83.0251 50.2306 82.0497L29.7508 61.5699V48.4629C29.7508 47.7977 29.4885 47.1627 29.0187 46.6951L6.03577 23.713L23.713 6.03577L41.9448 24.2676C42.9225 25.2453 44.5028 25.2453 45.4794 24.2676C46.457 23.2899 46.457 21.7096 45.4794 20.733L25.4807 0.733257C24.503 -0.244419 22.9227 -0.244419 21.9462 0.733257L0.733257 21.9462C-0.244419 22.9238 -0.244419 24.5042 0.733257 25.4807L24.7476 49.495V62.602C24.7476 63.2672 25.0098 63.9022 25.4797 64.3699L46.6949 85.5851C48.1547 87.0426 50.0777 87.7748 51.9974 87.7748C53.9171 87.7748 55.84 87.0427 57.3019 85.5828C58.2439 84.6375 58.8845 83.5025 59.2193 82.3029C61.6546 82.8352 64.3341 82.083 66.139 80.2806C67.0664 79.3531 67.7216 78.2281 68.0642 77.0006C70.4972 77.533 73.177 76.7808 74.9815 74.9761C76.8565 73.1011 77.5295 70.4739 76.9994 68.0565L76.9959 68.0613Z" fill="white"/>
<path d="M90.0015 70.0013C90.5595 70.0013 91.1187 69.816 91.5763 69.441L131.576 36.9414C132.263 36.3811 132.606 35.5017 132.471 34.6244C132.336 33.7472 131.751 33.0095 130.929 32.6792L120.858 28.6512L132.276 3.5366C132.768 2.45178 132.429 1.17168 131.461 0.471774C130.499 -0.217962 129.176 -0.143163 128.298 0.669317L93.2985 33.169C92.6713 33.7493 92.3855 34.6143 92.544 35.4569C92.6992 36.2995 93.2762 37.0015 94.0719 37.3218L103.772 41.2012L87.8888 66.1564C87.2315 67.191 87.419 68.5514 88.3364 69.3661C88.8085 69.7857 89.4034 69.9988 89.9993 69.9988L90.0015 70.0013ZM109.612 41.3445C110.011 40.7172 110.11 39.9416 109.882 39.234C109.654 38.5264 109.122 37.9539 108.432 37.6793L99.5974 34.1471L122.567 12.817L115.227 28.9663C114.945 29.589 114.927 30.2989 115.182 30.9339C115.437 31.5667 115.94 32.0689 116.575 32.3234L125.125 35.7431L100.383 55.8454L109.613 41.3433L109.612 41.3445Z" fill="white"/>
<path d="M66.4618 90.4697C65.4997 89.7799 64.1738 89.8525 63.2989 90.6672L28.2993 123.167C27.6721 123.747 27.3864 124.612 27.5449 125.455C27.7 126.297 28.277 126.999 29.0728 127.32L38.7724 131.199L22.8897 156.154C22.2323 157.189 22.4198 158.549 23.3372 159.364C23.8093 159.784 24.4042 159.997 25.0001 159.997C25.5582 159.997 26.1173 159.811 26.5749 159.436L66.5745 126.937C67.2619 126.377 67.6046 125.497 67.4696 124.62C67.3345 123.743 66.7497 123.005 65.9272 122.675L55.857 118.647L67.272 93.532C67.7642 92.4472 67.4249 91.1671 66.4573 90.4672L66.4618 90.4697ZM50.2242 118.962C49.9419 119.584 49.924 120.294 50.1796 120.929C50.434 121.562 50.9374 122.064 51.5724 122.319L60.1226 125.738L35.3806 145.841L44.6105 131.339C45.01 130.711 45.1083 129.936 44.8806 129.228C44.6529 128.521 44.1205 127.948 43.4308 127.674L34.5961 124.141L57.5658 102.811L50.2256 118.96L50.2242 118.962Z" fill="white"/>
<path d="M131.621 58.0957C130.896 57.4808 129.889 57.3279 129.016 57.7029L111.516 65.2028C110.249 65.7474 109.659 67.2173 110.204 68.4827C110.746 69.7528 112.214 70.3477 113.486 69.7952L126.353 64.2807L125.075 69.3935C124.855 70.2786 125.133 71.2138 125.803 71.8333C126.273 72.2685 126.883 72.5006 127.503 72.5006C127.767 72.5006 128.035 72.4582 128.293 72.3712L143.293 67.3712C144.603 66.936 145.311 65.5208 144.873 64.2084C144.438 62.9004 143.023 62.1884 141.71 62.6281L131.033 66.1883L132.428 60.6058C132.658 59.6862 132.345 58.713 131.623 58.0958L131.621 58.0957Z" fill="white"/>
<path d="M40.6906 94.9068C42.0176 94.5273 42.7854 93.1423 42.4082 91.8165C42.0288 90.4895 40.6482 89.7295 39.318 90.0967L25.981 93.9069L27.4307 88.1067C27.6506 87.2216 27.3727 86.2864 26.703 85.667C26.03 85.0442 25.0758 84.8366 24.2131 85.129L9.21328 90.129C7.90303 90.5642 7.19544 91.9794 7.63295 93.2918C8.07043 94.5998 9.48339 95.3119 10.7958 94.8721L21.4731 91.3119L20.078 96.8944C19.8626 97.7616 20.1227 98.6767 20.7655 99.2973C21.2376 99.7549 21.8626 99.9993 22.5032 99.9993C22.7331 99.9993 22.963 99.9669 23.1907 99.9044L40.6905 94.9045L40.6906 94.9068Z" fill="white"/>
</svg>
