<svg width="184" height="160" viewBox="0 0 184 160" fill="none" xmlns="http://www.w3.org/2000/svg">
<circle cx="122.5" cy="51.5" r="22.5" fill="#ED7253"/>
<path fill-rule="evenodd" clip-rule="evenodd" d="M104.715 17.1262C111.647 0.726246 130.414 -4.51555 145.632 4.10776C154.932 9.34955 161.356 19.1553 162.879 29.6386C164.4 30.1461 165.752 30.6537 167.275 31.4987C181.985 39.1068 187.564 57.367 179.787 72.0755C178.266 74.7807 176.743 77.6548 175.053 80.3598C173.532 83.065 171.672 85.7701 169.98 88.4754C155.947 109.103 137.686 127.193 116.214 140.046C95.756 152.388 72.0861 160.166 47.9063 159.997C33.7038 159.997 21.8678 150.022 18.8254 136.664C8.34214 131.085 0.902626 119.757 0.0575762 107.583C-0.95753 90.337 11.5548 75.2895 29.3074 75.7971C42.3258 76.1359 55.0067 71.5705 65.996 64.6373C79.6909 55.6766 90.8503 42.9956 98.7965 28.9633C99.9803 27.1031 100.994 25.0741 102.009 23.0453C102.854 21.1852 103.869 19.1562 104.714 17.1273L104.715 17.1262ZM49.597 96.2538C48.9207 94.7325 48.9207 92.7034 49.597 91.6885C50.2733 90.8435 51.2885 91.3497 51.9648 92.8724C59.0665 109.104 62.1093 112.993 63.462 110.964C64.9833 108.935 65.3221 101.495 65.6596 94.0562C65.9984 85.0954 66.3359 76.1334 69.0411 73.2595C71.07 68.8628 73.7753 71.3994 76.6492 76.641C78.0018 79.1775 79.5231 82.2202 80.8757 85.2643C83.4122 90.6747 85.7785 96.085 86.9626 96.085C87.6389 96.085 87.8076 88.6458 87.8076 80.3613C87.8076 71.2307 87.9764 61.256 89.8365 56.352C89.8365 56.0132 90.0053 55.6757 90.3441 55.5069C94.5706 51.6178 98.6283 60.5798 102.18 68.5253C104.209 73.0906 106.069 77.1486 106.745 76.4721C107.76 75.2883 107.084 67.5114 106.577 59.5646C105.561 47.3912 104.548 35.049 109.282 35.2176C110.127 35.2176 111.142 36.7389 111.311 38.5991C111.479 40.4592 110.972 41.9806 109.958 41.8118C108.437 41.8118 109.113 51.1113 109.789 60.2409C110.634 70.048 111.481 79.6849 108.944 82.3902C106.07 85.7717 103.195 79.3462 99.9835 72.0768C97.4471 66.4976 94.5732 60.4108 92.5443 61.5936C91.3605 65.4827 91.3605 74.1057 91.1917 82.0515C91.1917 92.8722 91.023 102.679 87.8102 102.679C84.9363 102.848 81.7234 95.9163 78.6796 88.9844C77.327 86.1104 75.9744 83.2353 74.622 81.0376C73.4381 78.6699 72.2542 77.3173 71.5779 78.5011C71.5779 78.8399 71.4092 79.0087 71.2391 79.1774C69.7178 80.6988 69.379 88.4769 69.0415 96.2538C68.5339 104.877 68.1964 113.5 65.9975 116.712C63.1235 120.769 58.5583 116.88 49.5976 96.2538H49.597ZM132.446 47.0531C138.533 35.7248 152.735 31.3293 164.232 37.246C175.56 43.3328 179.956 57.535 174.039 68.8634C172.687 71.3998 171.165 74.1051 169.474 76.979C168.121 79.1767 166.43 81.7132 164.401 84.7573C150.367 105.723 132.446 122.631 112.831 134.465C92.5417 146.639 70.0546 153.402 48.0742 153.402C35.0558 153.402 24.7411 142.75 24.7411 129.9C24.7411 116.881 35.3932 106.567 48.2431 106.567H50.1032C51.6246 109.948 53.4847 113.161 55.345 116.035C57.5427 119.079 60.9243 122.798 65.1521 121.784C66.8435 121.445 68.1961 120.263 69.0412 118.91C71.5777 115.36 72.254 108.089 72.5916 102.171C74.7893 101.326 77.1569 100.311 79.3546 99.2971C79.6934 99.6359 79.8622 100.142 80.0309 100.481C81.7224 103.355 84.2575 106.568 87.9778 106.568C92.8805 106.399 94.0646 100.65 94.5719 96.7607C94.7406 94.7318 94.9107 92.5342 94.9107 90.3351C97.4471 88.475 99.9836 86.6149 102.35 84.586C103.702 86.1074 105.394 87.1225 107.423 87.1225C109.114 87.1225 110.636 86.2775 111.82 84.9249C114.187 82.2197 114.525 77.4857 114.525 73.9353V73.0902C118.414 68.6935 122.303 63.7908 125.684 58.7192C126.53 57.3666 127.882 55.3377 129.235 52.9701C130.25 51.2787 131.264 49.4197 132.448 47.0521L132.446 47.0531ZM110.804 19.6623C116.046 7.32006 130.248 2.92331 142.422 9.85521C150.368 14.4205 155.44 22.5362 156.455 31.1595C153.242 30.8207 149.861 30.9907 146.818 31.8358C145.127 30.1444 143.268 28.7918 141.239 27.6092C131.602 22.5363 119.766 25.2415 113.003 33.1885C112.158 32.1733 110.974 31.497 109.453 31.3283C108.438 31.3283 107.593 31.4971 106.579 31.8359C102.352 33.8648 102.014 39.7827 101.845 43.8407C101.845 46.0383 101.845 48.406 102.013 50.6037C100.998 51.9563 99.9846 53.3089 98.9695 54.4928C97.4481 52.4639 95.2492 50.9424 92.7141 50.7726H91.5302C96.2644 45.1933 100.661 38.9366 104.549 32.1736C105.394 30.6523 106.578 28.6232 107.761 26.0868C108.777 24.2266 109.622 22.1976 110.805 19.6612L110.804 19.6623ZM84.2598 68.863C82.3996 70.2156 80.5395 71.5682 78.6806 72.7522C77.328 70.5545 75.6366 68.3554 73.2702 67.5104C77.4968 64.4664 81.5545 61.0848 85.4436 57.197C84.936 59.7334 84.5985 62.2699 84.4285 64.805C84.2597 66.1576 84.2597 67.5102 84.2597 68.8627L84.2598 68.863ZM62.6181 80.8678C56.869 82.8967 50.6133 84.0806 44.5268 84.0806C32.0147 84.0806 21.7012 94.2251 21.5324 106.738C21.5324 110.627 22.5475 114.346 24.2376 117.558C22.3774 121.278 21.1936 125.336 21.1936 129.9V130.408C13.0779 125.843 7.3288 117.051 6.6523 107.245C5.80725 93.0426 15.7829 81.8831 28.9702 82.3908C40.975 82.7296 53.1484 79.3467 64.6442 73.0913C63.4604 75.459 62.9528 78.5016 62.6153 80.8695L62.6181 80.8678ZM114.863 36.9069C120.273 28.9601 130.925 26.2548 139.548 30.8201C140.732 31.4964 141.916 32.1727 142.93 33.0177C137.351 35.3855 132.447 39.6119 129.404 45.36C128.389 47.3889 127.375 49.2491 126.191 51.1091C125.007 52.969 123.993 54.9982 122.641 56.6883C120.104 60.5774 117.23 64.2964 114.186 67.8481C114.186 65.1428 113.847 62.6063 113.679 59.9012C113.34 56.5197 113.171 52.9694 113.002 49.418C112.834 48.4029 112.834 46.2052 112.834 44.6838C114.863 43.3312 115.37 40.4573 115.031 38.0897C115.031 37.7509 115.031 37.2446 114.863 36.9058L114.863 36.9069ZM100.321 81.7122C98.6299 83.0648 96.7709 84.5862 95.0795 85.9388V79.1745C95.0795 76.4693 95.0795 73.7642 95.2482 71.0588C95.7558 72.2427 96.2634 73.2565 96.4321 73.7641C97.616 76.3005 98.7998 79.1744 100.321 81.7109L100.321 81.7122ZM77.6643 96.0833C76.143 96.9284 74.4516 97.6047 72.7616 98.281V96.4208C72.9304 94.8994 72.9304 90.5028 73.2692 86.7839C73.9455 87.9678 74.6218 89.3204 75.1293 90.673C75.9744 92.3644 76.8207 94.2234 77.6658 96.0834L77.6643 96.0833ZM61.433 101.663C61.0942 101.663 60.5879 101.831 60.2491 101.831C58.2202 97.7736 56.1914 92.8706 55.5149 91.348C54.4998 88.9803 52.4709 87.1215 49.7659 87.4589C48.4133 87.6276 47.2294 88.474 46.3844 89.6565C44.863 91.8542 45.0318 95.4056 46.0456 97.7722C46.8906 99.4636 47.5669 101.323 48.4133 103.014H48.2445C39.4527 103.014 31.5055 107.241 26.4339 113.835C25.5889 111.637 25.0813 109.269 25.2501 106.733C25.2501 96.2497 33.8734 87.6277 44.5255 87.6277C50.2746 87.7965 56.3614 86.7827 62.2781 84.7537C62.1093 87.7978 61.9393 90.8406 61.7705 93.8843C61.7705 95.2369 61.6018 98.4496 61.4317 101.663L61.433 101.663ZM80.5382 75.7943C81.7221 75.118 82.9059 74.2729 84.0886 73.4266V76.4706C84.0886 77.8232 84.0886 79.007 83.9199 80.3597V82.8961C82.9048 80.5284 81.7221 78.1618 80.5382 75.7943ZM100.996 57.5341C101.504 57.0265 102.011 56.519 102.349 56.0127C102.518 57.3653 102.518 58.5492 102.688 59.9018V60.5781C102.18 59.563 101.672 58.5492 100.996 57.5341Z" fill="white"/>
</svg>
