<svg width="153" height="160" viewBox="0 0 153 160" fill="none" xmlns="http://www.w3.org/2000/svg">
<circle cx="22.5" cy="51.5" r="22.5" fill="#ED7253"/>
<path d="M76.368 47.9986C64.0385 47.9986 52.6432 51.9853 43.3918 58.7378L31.8195 46.8748L20.3666 58.0451L31.9389 69.9093C24.6824 79.3512 20.3666 91.1695 20.3666 103.999C20.3666 134.929 45.4378 160 76.365 160C107.295 160 132.363 134.929 132.363 103.999C132.365 73.0683 107.295 48.0001 76.365 48.0001L76.368 47.9986ZM76.368 152C49.8997 152 28.3676 130.469 28.3676 104C28.3676 93.4343 31.8 83.6584 37.608 75.7224L70.6413 109.587L82.0942 98.4164L49.0609 64.5491C56.8175 59.1644 66.23 56.0027 76.3692 56.0027C102.84 56.0027 124.37 77.5326 124.37 104C124.37 130.47 102.841 152 76.3692 152H76.368ZM80.3677 24.0014H72.3672L72.3684 0H80.3688L80.3677 24.0014ZM23.1962 45.1738L17.5396 50.8282L0 33.2898L5.65655 27.6332L23.1962 45.1738ZM152.737 33.2898L135.198 50.827L129.541 45.1738L147.078 27.6341L152.737 33.2898ZM111.106 31.8202L103.729 28.7194L113.041 6.59903L120.418 9.69986L111.106 31.8202ZM41.6343 31.8202L32.3226 9.69986L39.6984 6.59903L49.0102 28.7194L41.6343 31.8202Z" fill="white"/>
</svg>
