<svg width="216" height="859" viewBox="0 0 216 859" fill="none" xmlns="http://www.w3.org/2000/svg">
<path d="M213 825.402V858.402H2.99999V754.302H213V787.902H33V825.402H213ZM164.7 700.075C172.3 700.075 177.7 698.575 180.9 695.575C183.9 692.375 185.4 688.175 185.4 682.975C185.4 677.775 183.9 673.675 180.9 670.675C177.7 667.475 172.3 665.875 164.7 665.875H51.3C43.7 665.875 38.4 667.475 35.4 670.675C32.2 673.675 30.6 677.775 30.6 682.975C30.6 688.175 32.2 692.375 35.4 695.575C38.4 698.575 43.7 700.075 51.3 700.075H164.7ZM53.4 733.075C36.4 733.075 23.4 728.775 14.4 720.175C5.19999 711.575 0.599999 699.175 0.599999 682.975C0.599999 666.775 5.19999 654.375 14.4 645.775C23.4 637.175 36.4 632.875 53.4 632.875H162.6C179.6 632.875 192.7 637.175 201.9 645.775C210.9 654.375 215.4 666.775 215.4 682.975C215.4 699.175 210.9 711.575 201.9 720.175C192.7 728.775 179.6 733.075 162.6 733.075H53.4ZM2.99999 511.23H213V544.23H128.4C132.4 547.83 135.4 552.33 137.4 557.73C139.2 562.93 140.1 567.83 140.1 572.43C140.1 586.03 135.7 596.33 126.9 603.33C117.9 610.13 106.2 613.53 91.8 613.53H2.99999V580.53H89.1C96.1 580.53 101.3 578.63 104.7 574.83C108.1 571.03 109.8 566.53 109.8 561.33C109.8 556.13 108 552.03 104.4 549.03C100.6 545.83 95.2 544.23 88.2 544.23H2.99999V511.23ZM91.5 453.918L91.5 408.618H121.5V453.918H183L183 396.918H213V486.918H2.99999L2.99999 396.918H33V453.918H91.5ZM152.1 306.569L2.99999 284.069V238.169H213V269.369H62.4L213 292.169V323.369L64.5 347.969H213V376.769H2.99999V330.869L152.1 306.569ZM159.6 140.964C169 142.964 177.3 145.464 184.5 148.464C191.5 151.264 197.3 155.164 201.9 160.164C206.3 164.964 209.5 171.264 211.5 179.064C213.5 186.664 214.1 196.164 213.3 207.564H183.9C184.5 199.164 183.7 192.564 181.5 187.764C179.3 182.964 174.4 179.864 166.8 178.464L165 178.164L2.99999 223.764L2.99999 191.064L74.7 173.064L123.9 162.864L75 155.064L2.99999 140.064V105.564L159.6 140.964ZM166.5 67.7031C162.9 68.9031 158.6 69.5031 153.6 69.5031C146 69.5031 139.4 68.6031 133.8 66.8031C128.2 65.0031 123.1 62.8031 118.5 60.2031C113.7 57.6031 109.2 54.7031 105 51.5031C100.6 48.3031 95.9 45.4031 90.9 42.8031C85.9 40.2031 80.3 38.0031 74.1 36.2031C67.7 34.4031 60.1 33.5031 51.3 33.5031C43.7 33.5031 38.4 35.0031 35.4 38.0031C32.2 40.8031 30.6 44.8031 30.6 50.0031C30.6 55.2031 32.2 59.3031 35.4 62.3031C38.4 65.1031 43.7 66.5031 51.3 66.5031H74.1V97.7031H53.4C36.4 97.7031 23.4 93.7031 14.4 85.7031C5.19999 77.5031 0.599999 65.3031 0.599999 49.1031C0.599999 32.9031 5.19999 20.8031 14.4 12.8031C23.4 4.60312 36.4 0.503121 53.4 0.503121C62.6 0.503121 70.6 1.50312 77.4 3.50312C84 5.30312 90 7.70312 95.4 10.7031C100.8 13.5031 105.8 16.6031 110.4 20.0031C114.8 23.4031 119.2 26.6031 123.6 29.6031C128 32.4031 132.7 34.8031 137.7 36.8031C142.7 38.6031 148.4 39.5031 154.8 39.5031C159.2 39.5031 163.1 39.1031 166.5 38.3031V67.7031ZM181.2 37.4031H213V69.2031H181.2V37.4031Z" fill="#88385E"/>
</svg>
